<?xml version="1.0" encoding="UTF-8"?>
<svg id="nav" xmlns="http://www.w3.org/2000/svg" xmlns:xlink="http://www.w3.org/1999/xlink" viewBox="0 0 1266.609 227.164">
  <defs>
    <style>
      .cls-1 {
        fill: #8feaff;
      }

      .cls-2 {
        fill: url(#linear-gradient);
      }
    </style>
    <linearGradient id="linear-gradient" x1="636.565" y1="32.379" x2="641.796" y2="225.938" gradientUnits="userSpaceOnUse">
      <stop offset=".667" stop-color="#ff1f20"/>
      <stop offset="1" stop-color="#000"/>
    </linearGradient>
  </defs>
  <g>
    <path class="cls-1" d="M70.62,163.297h.162c6.482,0,10.858-4.376,10.858-10.858v-69.201c0-6.482-4.376-10.858-10.858-10.858h-.162v-3.241h50.239c32.251,0,44.892,24.147,44.892,48.457,0,24.796-12.641,48.943-44.892,48.943h-50.239v-3.241ZM116.97,163.297c20.906,0,27.551-22.688,27.551-45.378s-6.645-45.54-27.551-45.54h-15.882v90.918h15.882Z"/>
    <path class="cls-1" d="M247.268,142.39c-5.996,16.692-22.041,25.769-35.979,25.769-49.591,0-52.509-84.273,1.135-84.273,21.879,0,32.574,11.507,32.574,22.526,0,22.041-39.057,17.503-39.057,33.062,0,9.562,9.562,14.262,18.637,14.262,8.266,0,16.045-4.052,20.906-12.155l1.783.811ZM202.701,139.311c0-15.559,23.499-18.962,23.499-39.544,0-8.589-5.187-12.641-13.613-12.641-24.796,0-28.199,41.975-8.266,59.315-1.134-2.107-1.62-4.376-1.62-7.131Z"/>
    <path class="cls-1" d="M301.559,146.766l16.692-48.457c2.431-6.807-1.62-9.562-7.779-9.562h-.647v-3.241h26.254v3.241h-.648c-6.158,0-11.021,2.27-13.613,9.562l-23.661,68.229h-8.913l-31.278-69.039c-2.756-5.996-5.835-8.752-11.345-8.752h-.162v-3.241h36.626v3.241h-.162c-4.537,0-6.158,2.756-4.375,6.808l23.013,51.212Z"/>
    <path class="cls-1" d="M344.667,105.764c0-6.159-4.052-10.21-10.21-10.21h-.811v-3.242c5.51,0,19.771,0,28.847-10.857h1.621v70.983c0,6.482,4.376,10.858,10.858,10.858h.162v3.241h-41.488v-3.241h.162c6.482,0,10.858-4.376,10.858-10.858v-46.674ZM354.553,55.686c6.32,0,10.534,4.214,10.534,10.534s-4.214,10.534-10.534,10.534-10.534-4.214-10.534-10.534,4.214-10.534,10.534-10.534Z"/>
    <path class="cls-1" d="M387.776,74.648c0-6.159-4.052-10.21-10.21-10.21h-.811v-3.242c5.51,0,19.771,0,28.847-10.857h1.621v102.1c0,6.482,4.376,10.858,10.858,10.858h.162v3.241h-41.488v-3.241h.162c6.482,0,10.858-4.376,10.858-10.858v-77.79Z"/>
    <path class="cls-1" d="M467.995,105.764c0-6.159-4.052-10.21-10.21-10.21h-.811v-3.242c5.51,0,19.771,0,28.847-10.857h1.621v70.983c0,6.482,4.376,10.858,10.858,10.858h.162v3.241h-41.488v-3.241h.162c6.482,0,10.858-4.376,10.858-10.858v-46.674ZM477.881,55.686c6.32,0,10.534,4.214,10.534,10.534s-4.214,10.534-10.534,10.534-10.534-4.214-10.534-10.534,4.214-10.534,10.534-10.534Z"/>
    <path class="cls-1" d="M511.104,105.764c0-6.159-4.052-10.21-10.21-10.21h-.811v-3.242c5.51,0,19.771,0,28.847-10.857h1.621v19.447c8.428-9.237,19.447-17.017,32.089-17.017,17.503,0,23.499,12.479,23.499,26.578,0,18.151-3.241,30.792-3.241,45.702,0,35.654,12.641,41.812,23.013,41.812,15.234,0,16.692-18.638,10.696-26.74,24.634-4.7,25.606,29.981-11.507,29.981-18.637,0-41.65-8.428-41.65-45.378,0-11.669,3.241-28.523,3.241-41.488,0-8.913-2.269-19.609-13.937-19.609-8.266,0-15.234,3.89-22.203,11.021v46.674c0,6.482,4.376,10.858,10.858,10.858h.162v3.241h-41.488v-3.241h.162c6.482,0,10.858-4.376,10.858-10.858v-46.674Z"/>
    <path class="cls-1" d="M631.515,163.297h.162c6.482,0,10.858-4.376,10.858-10.858v-69.201c0-6.482-4.376-10.858-10.858-10.858h-.162v-3.241h50.239c32.251,0,44.892,24.147,44.892,48.457,0,24.796-12.641,48.943-44.892,48.943h-50.239v-3.241ZM677.865,163.297c20.906,0,27.551-22.688,27.551-45.378s-6.645-45.54-27.551-45.54h-15.882v90.918h15.882Z"/>
    <path class="cls-1" d="M740.097,105.764c0-6.159-4.052-10.21-10.21-10.21h-.811v-3.242c5.51,0,19.771,0,28.847-10.857h1.621v70.983c0,6.482,4.376,10.858,10.858,10.858h.162v3.241h-41.488v-3.241h.162c6.482,0,10.858-4.376,10.858-10.858v-46.674ZM749.983,55.686c6.32,0,10.534,4.214,10.534,10.534s-4.214,10.534-10.534,10.534-10.534-4.214-10.534-10.534,4.214-10.534,10.534-10.534Z"/>
    <path class="cls-1" d="M773.805,149.359c0-6.807,5.835-12.155,12.804-12.155,3.565,0,7.616,1.621,11.02,5.349-10.21,4.7-6.482,22.364,9.4,22.364,9.562,0,15.071-4.699,15.071-12.316,0-22.851-48.133-16.206-48.133-46.351,0-14.585,14.586-22.364,30.792-22.364,5.187,0,10.696,1.297,15.721,1.297,3.079,0,6.158-.486,8.751-1.945l1.459-.811h.973l1.782,30.307h-3.241c-4.052-18.476-14.748-25.606-25.769-25.606-7.131,0-14.585,4.214-14.585,12.316,0,20.906,50.239,13.613,50.239,45.864,0,17.503-20.582,22.852-34.195,22.852-14.1,0-32.089-4.7-32.089-18.8Z"/>
    <path class="cls-1" d="M865.209,134.125c-2.755,2.107-6.645,5.835-6.645,9.562,0,2.593,2.107,5.023,8.104,5.023,7.131,0,18.151-3.241,26.902-3.241,15.072,0,25.282,5.834,25.282,23.499,0,23.661-23.499,33.872-44.729,33.872-17.827,0-34.033-7.131-34.033-19.448,0-11.507,12.641-18.151,21.554-20.258-8.103-1.135-13.938-4.214-13.938-11.669,0-7.293,9.238-14.585,14.1-18.637-25.768-11.831-19.447-47.323,19.124-47.323,1.297,0,2.917,0,3.89.162,5.834-7.94,15.233-14.747,25.443-14.747,15.234,0,17.503,16.53,4.052,19.934.973-7.779-3.565-12.803-11.344-12.803-4.862,0-10.372,2.593-14.424,7.94,38.409,5.349,35.815,50.564-7.617,50.564-5.996,0-11.345-.973-15.721-2.432ZM886.44,190.199c12.155,0,28.361-4.538,28.361-16.044,0-10.858-15.558-10.696-23.499-10.696-5.511,0-11.345.324-17.017.324-12.803.648-19.124,4.052-19.124,11.183,0,7.292,9.076,15.233,31.278,15.233ZM880.93,88.747c-18.638,0-18.638,44.568,0,44.568s18.638-44.568,0-44.568Z"/>
    <path class="cls-1" d="M1007.664,146.28c0,6.158,4.052,10.21,10.21,10.21h.811v3.241c-5.511,0-19.772,0-28.848,10.858h-1.62v-19.448c-8.428,9.238-19.448,17.018-32.089,17.018-20.582,0-26.417-16.369-26.417-26.579,0-12.641,3.242-18.799,3.242-33.709,0-7.131-2.432-19.124-11.183-19.124h-.162v-3.241h10.696c17.503,0,20.096,12.966,20.096,20.744,0,12.317-3.241,18.638-3.241,31.603,0,8.914,5.186,19.448,16.854,19.448,8.266,0,15.234-3.89,22.203-11.021v-40.516c0-6.159-4.052-10.21-10.21-10.21h-.811v-3.242c5.51,0,19.771,0,28.847-10.857h1.621v64.825Z"/>
    <path class="cls-1" d="M1030.03,105.764c0-6.159-4.052-10.21-10.21-10.21h-.811v-3.242c5.51,0,19.771,0,28.847-10.857h1.621v70.983c0,6.482,4.376,10.858,10.858,10.858h.162v3.241h-41.488v-3.241h.162c6.482,0,10.858-4.376,10.858-10.858v-46.674ZM1039.915,55.686c6.32,0,10.534,4.214,10.534,10.534s-4.214,10.534-10.534,10.534-10.534-4.214-10.534-10.534,4.214-10.534,10.534-10.534Z"/>
    <path class="cls-1" d="M1063.737,149.359c0-6.807,5.835-12.155,12.804-12.155,3.565,0,7.616,1.621,11.02,5.349-10.21,4.7-6.482,22.364,9.4,22.364,9.562,0,15.071-4.699,15.071-12.316,0-22.851-48.133-16.206-48.133-46.351,0-14.585,14.586-22.364,30.792-22.364,5.187,0,10.696,1.297,15.721,1.297,3.079,0,6.158-.486,8.751-1.945l1.459-.811h.973l1.782,30.307h-3.241c-4.052-18.476-14.748-25.606-25.769-25.606-7.131,0-14.585,4.214-14.585,12.316,0,20.906,50.239,13.613,50.239,45.864,0,17.503-20.582,22.852-34.195,22.852-14.1,0-32.089-4.7-32.089-18.8Z"/>
    <path class="cls-1" d="M1209.109,142.39c-5.996,16.692-22.041,25.769-35.979,25.769-49.591,0-52.509-84.273,1.135-84.273,21.879,0,32.574,11.507,32.574,22.526,0,22.041-39.057,17.503-39.057,33.062,0,9.562,9.562,14.262,18.637,14.262,8.266,0,16.045-4.052,20.906-12.155l1.783.811ZM1164.541,139.311c0-15.559,23.499-18.962,23.499-39.544,0-8.589-5.187-12.641-13.613-12.641-24.796,0-28.199,41.975-8.266,59.315-1.134-2.107-1.62-4.376-1.62-7.131Z"/>
  </g>
  <g>
    <path class="cls-2" d="M70.62,163.297h.162c6.482,0,10.858-4.376,10.858-10.858v-69.201c0-6.482-4.376-10.858-10.858-10.858h-.162v-3.241h50.239c32.251,0,44.892,24.147,44.892,48.457,0,24.796-12.641,48.943-44.892,48.943h-50.239v-3.241ZM116.97,163.297c20.906,0,27.551-22.688,27.551-45.378s-6.645-45.54-27.551-45.54h-15.882v90.918h15.882Z"/>
    <path class="cls-2" d="M247.268,142.39c-5.996,16.692-22.041,25.769-35.979,25.769-49.591,0-52.509-84.273,1.135-84.273,21.879,0,32.574,11.507,32.574,22.526,0,22.041-39.057,17.503-39.057,33.062,0,9.562,9.562,14.262,18.637,14.262,8.266,0,16.045-4.052,20.906-12.155l1.783.811ZM202.701,139.311c0-15.559,23.499-18.962,23.499-39.544,0-8.589-5.187-12.641-13.613-12.641-24.796,0-28.199,41.975-8.266,59.315-1.134-2.107-1.62-4.376-1.62-7.131Z"/>
    <path class="cls-2" d="M301.559,146.766l16.692-48.457c2.431-6.807-1.62-9.562-7.779-9.562h-.647v-3.241h26.254v3.241h-.648c-6.158,0-11.021,2.27-13.613,9.562l-23.661,68.229h-8.913l-31.278-69.039c-2.756-5.996-5.835-8.752-11.345-8.752h-.162v-3.241h36.626v3.241h-.162c-4.537,0-6.158,2.756-4.375,6.808l23.013,51.212Z"/>
    <path class="cls-2" d="M344.667,105.764c0-6.159-4.052-10.21-10.21-10.21h-.811v-3.242c5.51,0,19.771,0,28.847-10.857h1.621v70.983c0,6.482,4.376,10.858,10.858,10.858h.162v3.241h-41.488v-3.241h.162c6.482,0,10.858-4.376,10.858-10.858v-46.674ZM354.553,55.686c6.32,0,10.534,4.214,10.534,10.534s-4.214,10.534-10.534,10.534-10.534-4.214-10.534-10.534,4.214-10.534,10.534-10.534Z"/>
    <path class="cls-2" d="M387.776,74.648c0-6.159-4.052-10.21-10.21-10.21h-.811v-3.242c5.51,0,19.771,0,28.847-10.857h1.621v102.1c0,6.482,4.376,10.858,10.858,10.858h.162v3.241h-41.488v-3.241h.162c6.482,0,10.858-4.376,10.858-10.858v-77.79Z"/>
    <path class="cls-2" d="M467.995,105.764c0-6.159-4.052-10.21-10.21-10.21h-.811v-3.242c5.51,0,19.771,0,28.847-10.857h1.621v70.983c0,6.482,4.376,10.858,10.858,10.858h.162v3.241h-41.488v-3.241h.162c6.482,0,10.858-4.376,10.858-10.858v-46.674ZM477.881,55.686c6.32,0,10.534,4.214,10.534,10.534s-4.214,10.534-10.534,10.534-10.534-4.214-10.534-10.534,4.214-10.534,10.534-10.534Z"/>
    <path class="cls-2" d="M511.104,105.764c0-6.159-4.052-10.21-10.21-10.21h-.811v-3.242c5.51,0,19.771,0,28.847-10.857h1.621v19.447c8.428-9.237,19.447-17.017,32.089-17.017,17.503,0,23.499,12.479,23.499,26.578,0,18.151-3.241,30.792-3.241,45.702,0,35.654,12.641,41.812,23.013,41.812,15.234,0,16.692-18.638,10.696-26.74,24.634-4.7,25.606,29.981-11.507,29.981-18.637,0-41.65-8.428-41.65-45.378,0-11.669,3.241-28.523,3.241-41.488,0-8.913-2.269-19.609-13.937-19.609-8.266,0-15.234,3.89-22.203,11.021v46.674c0,6.482,4.376,10.858,10.858,10.858h.162v3.241h-41.488v-3.241h.162c6.482,0,10.858-4.376,10.858-10.858v-46.674Z"/>
    <path class="cls-2" d="M631.515,163.297h.162c6.482,0,10.858-4.376,10.858-10.858v-69.201c0-6.482-4.376-10.858-10.858-10.858h-.162v-3.241h50.239c32.251,0,44.892,24.147,44.892,48.457,0,24.796-12.641,48.943-44.892,48.943h-50.239v-3.241ZM677.865,163.297c20.906,0,27.551-22.688,27.551-45.378s-6.645-45.54-27.551-45.54h-15.882v90.918h15.882Z"/>
    <path class="cls-2" d="M740.097,105.764c0-6.159-4.052-10.21-10.21-10.21h-.811v-3.242c5.51,0,19.771,0,28.847-10.857h1.621v70.983c0,6.482,4.376,10.858,10.858,10.858h.162v3.241h-41.488v-3.241h.162c6.482,0,10.858-4.376,10.858-10.858v-46.674ZM749.983,55.686c6.32,0,10.534,4.214,10.534,10.534s-4.214,10.534-10.534,10.534-10.534-4.214-10.534-10.534,4.214-10.534,10.534-10.534Z"/>
    <path class="cls-2" d="M773.805,149.359c0-6.807,5.835-12.155,12.804-12.155,3.565,0,7.616,1.621,11.02,5.349-10.21,4.7-6.482,22.364,9.4,22.364,9.562,0,15.071-4.699,15.071-12.316,0-22.851-48.133-16.206-48.133-46.351,0-14.585,14.586-22.364,30.792-22.364,5.187,0,10.696,1.297,15.721,1.297,3.079,0,6.158-.486,8.751-1.945l1.459-.811h.973l1.782,30.307h-3.241c-4.052-18.476-14.748-25.606-25.769-25.606-7.131,0-14.585,4.214-14.585,12.316,0,20.906,50.239,13.613,50.239,45.864,0,17.503-20.582,22.852-34.195,22.852-14.1,0-32.089-4.7-32.089-18.8Z"/>
    <path class="cls-2" d="M865.209,134.125c-2.755,2.107-6.645,5.835-6.645,9.562,0,2.593,2.107,5.023,8.104,5.023,7.131,0,18.151-3.241,26.902-3.241,15.072,0,25.282,5.834,25.282,23.499,0,23.661-23.499,33.872-44.729,33.872-17.827,0-34.033-7.131-34.033-19.448,0-11.507,12.641-18.151,21.554-20.258-8.103-1.135-13.938-4.214-13.938-11.669,0-7.293,9.238-14.585,14.1-18.637-25.768-11.831-19.447-47.323,19.124-47.323,1.297,0,2.917,0,3.89.162,5.834-7.94,15.233-14.747,25.443-14.747,15.234,0,17.503,16.53,4.052,19.934.973-7.779-3.565-12.803-11.344-12.803-4.862,0-10.372,2.593-14.424,7.94,38.409,5.349,35.815,50.564-7.617,50.564-5.996,0-11.345-.973-15.721-2.432ZM886.44,190.199c12.155,0,28.361-4.538,28.361-16.044,0-10.858-15.558-10.696-23.499-10.696-5.511,0-11.345.324-17.017.324-12.803.648-19.124,4.052-19.124,11.183,0,7.292,9.076,15.233,31.278,15.233ZM880.93,88.747c-18.638,0-18.638,44.568,0,44.568s18.638-44.568,0-44.568Z"/>
    <path class="cls-2" d="M1007.664,146.28c0,6.158,4.052,10.21,10.21,10.21h.811v3.241c-5.511,0-19.772,0-28.848,10.858h-1.62v-19.448c-8.428,9.238-19.448,17.018-32.089,17.018-20.582,0-26.417-16.369-26.417-26.579,0-12.641,3.242-18.799,3.242-33.709,0-7.131-2.432-19.124-11.183-19.124h-.162v-3.241h10.696c17.503,0,20.096,12.966,20.096,20.744,0,12.317-3.241,18.638-3.241,31.603,0,8.914,5.186,19.448,16.854,19.448,8.266,0,15.234-3.89,22.203-11.021v-40.516c0-6.159-4.052-10.21-10.21-10.21h-.811v-3.242c5.51,0,19.771,0,28.847-10.857h1.621v64.825Z"/>
    <path class="cls-2" d="M1030.03,105.764c0-6.159-4.052-10.21-10.21-10.21h-.811v-3.242c5.51,0,19.771,0,28.847-10.857h1.621v70.983c0,6.482,4.376,10.858,10.858,10.858h.162v3.241h-41.488v-3.241h.162c6.482,0,10.858-4.376,10.858-10.858v-46.674ZM1039.915,55.686c6.32,0,10.534,4.214,10.534,10.534s-4.214,10.534-10.534,10.534-10.534-4.214-10.534-10.534,4.214-10.534,10.534-10.534Z"/>
    <path class="cls-2" d="M1063.737,149.359c0-6.807,5.835-12.155,12.804-12.155,3.565,0,7.616,1.621,11.02,5.349-10.21,4.7-6.482,22.364,9.4,22.364,9.562,0,15.071-4.699,15.071-12.316,0-22.851-48.133-16.206-48.133-46.351,0-14.585,14.586-22.364,30.792-22.364,5.187,0,10.696,1.297,15.721,1.297,3.079,0,6.158-.486,8.751-1.945l1.459-.811h.973l1.782,30.307h-3.241c-4.052-18.476-14.748-25.606-25.769-25.606-7.131,0-14.585,4.214-14.585,12.316,0,20.906,50.239,13.613,50.239,45.864,0,17.503-20.582,22.852-34.195,22.852-14.1,0-32.089-4.7-32.089-18.8Z"/>
    <path class="cls-2" d="M1209.109,142.39c-5.996,16.692-22.041,25.769-35.979,25.769-49.591,0-52.509-84.273,1.135-84.273,21.879,0,32.574,11.507,32.574,22.526,0,22.041-39.057,17.503-39.057,33.062,0,9.562,9.562,14.262,18.637,14.262,8.266,0,16.045-4.052,20.906-12.155l1.783.811ZM1164.541,139.311c0-15.559,23.499-18.962,23.499-39.544,0-8.589-5.187-12.641-13.613-12.641-24.796,0-28.199,41.975-8.266,59.315-1.134-2.107-1.62-4.376-1.62-7.131Z"/>
  </g>
</svg>