<?xml version="1.0" encoding="UTF-8"?>
<svg id="nav" xmlns="http://www.w3.org/2000/svg" xmlns:xlink="http://www.w3.org/1999/xlink" viewBox="0 0 325.55 72.59">
  <defs>
    <style>
      .cls-1 {
        fill: url(#linear-gradient);
      }

      .cls-2 {
        fill: #8feaff;
        font-family: cinemasunday-Regular, 'cinema sunday';
        font-size: 42.06px;
      }

      .cls-3 {
        letter-spacing: .02em;
      }
    </style>
    <linearGradient id="linear-gradient" x1="161.71" y1="11.2" x2="163.07" y2="61.45" gradientUnits="userSpaceOnUse">
      <stop offset=".67" stop-color="#ff1f20"/>
      <stop offset="1" stop-color="#000"/>
    </linearGradient>
  </defs>
  <text class="cls-2" transform="translate(14.61 46.03)"><tspan class="cls-3" x="0" y="0">D</tspan><tspan x="26.16" y="0">evil in Disguise</tspan></text>
  <g>
    <path class="cls-1" d="M14.82,45.19h.04c1.68,0,2.82-1.14,2.82-2.82v-17.96c0-1.68-1.13-2.82-2.82-2.82h-.04v-.84h13.04c8.37,0,11.65,6.27,11.65,12.58s-3.28,12.71-11.65,12.71h-13.04v-.84ZM26.85,45.19c5.43,0,7.15-5.89,7.15-11.78s-1.72-11.82-7.15-11.82h-4.12v23.6h4.12Z"/>
    <path class="cls-1" d="M60.67,39.76c-1.56,4.33-5.72,6.69-9.34,6.69-12.87,0-13.63-21.88.29-21.88,5.68,0,8.46,2.99,8.46,5.85,0,5.72-10.14,4.54-10.14,8.58,0,2.48,2.48,3.7,4.84,3.7,2.14,0,4.16-1.05,5.43-3.16l.46.21ZM49.1,38.96c0-4.04,6.1-4.92,6.1-10.26,0-2.23-1.35-3.28-3.53-3.28-6.44,0-7.32,10.9-2.15,15.4-.29-.55-.42-1.14-.42-1.85Z"/>
    <path class="cls-1" d="M74.76,40.9l4.33-12.58c.63-1.77-.42-2.48-2.02-2.48h-.17v-.84h6.81v.84h-.17c-1.6,0-2.86.59-3.53,2.48l-6.14,17.71h-2.31l-8.12-17.92c-.71-1.56-1.51-2.27-2.94-2.27h-.04v-.84h9.51v.84h-.04c-1.18,0-1.6.71-1.13,1.77l5.97,13.29Z"/>
    <path class="cls-1" d="M85.95,30.25c0-1.6-1.05-2.65-2.65-2.65h-.21v-.84c1.43,0,5.13,0,7.49-2.82h.42v18.43c0,1.68,1.13,2.82,2.82,2.82h.04v.84h-10.77v-.84h.04c1.68,0,2.82-1.14,2.82-2.82v-12.12ZM88.51,17.25c1.64,0,2.73,1.09,2.73,2.73s-1.09,2.73-2.73,2.73-2.73-1.09-2.73-2.73,1.09-2.73,2.73-2.73Z"/>
    <path class="cls-1" d="M97.14,22.18c0-1.6-1.05-2.65-2.65-2.65h-.21v-.84c1.43,0,5.13,0,7.49-2.82h.42v26.5c0,1.68,1.14,2.82,2.82,2.82h.04v.84h-10.77v-.84h.04c1.68,0,2.82-1.14,2.82-2.82v-20.19Z"/>
    <path class="cls-1" d="M117.96,30.25c0-1.6-1.05-2.65-2.65-2.65h-.21v-.84c1.43,0,5.13,0,7.49-2.82h.42v18.43c0,1.68,1.14,2.82,2.82,2.82h.04v.84h-10.77v-.84h.04c1.68,0,2.82-1.14,2.82-2.82v-12.12ZM120.52,17.25c1.64,0,2.74,1.09,2.74,2.73s-1.09,2.73-2.74,2.73-2.73-1.09-2.73-2.73,1.09-2.73,2.73-2.73Z"/>
    <path class="cls-1" d="M129.14,30.25c0-1.6-1.05-2.65-2.65-2.65h-.21v-.84c1.43,0,5.13,0,7.49-2.82h.42v5.05c2.19-2.4,5.05-4.42,8.33-4.42,4.54,0,6.1,3.24,6.1,6.9,0,4.71-.84,7.99-.84,11.86,0,9.25,3.28,10.85,5.97,10.85,3.96,0,4.33-4.84,2.78-6.94,6.39-1.22,6.65,7.78-2.99,7.78-4.84,0-10.81-2.19-10.81-11.78,0-3.03.84-7.4.84-10.77,0-2.31-.59-5.09-3.62-5.09-2.15,0-3.96,1.01-5.76,2.86v12.12c0,1.68,1.13,2.82,2.82,2.82h.04v.84h-10.77v-.84h.04c1.68,0,2.82-1.14,2.82-2.82v-12.12Z"/>
    <path class="cls-1" d="M160.4,45.19h.04c1.68,0,2.82-1.14,2.82-2.82v-17.96c0-1.68-1.13-2.82-2.82-2.82h-.04v-.84h13.04c8.37,0,11.65,6.27,11.65,12.58s-3.28,12.71-11.65,12.71h-13.04v-.84ZM172.43,45.19c5.43,0,7.15-5.89,7.15-11.78s-1.72-11.82-7.15-11.82h-4.12v23.6h4.12Z"/>
    <path class="cls-1" d="M188.58,30.25c0-1.6-1.05-2.65-2.65-2.65h-.21v-.84c1.43,0,5.13,0,7.49-2.82h.42v18.43c0,1.68,1.14,2.82,2.82,2.82h.04v.84h-10.77v-.84h.04c1.68,0,2.82-1.14,2.82-2.82v-12.12ZM191.14,17.25c1.64,0,2.74,1.09,2.74,2.73s-1.09,2.73-2.74,2.73-2.73-1.09-2.73-2.73,1.09-2.73,2.73-2.73Z"/>
    <path class="cls-1" d="M197.33,41.57c0-1.77,1.51-3.16,3.32-3.16.93,0,1.98.42,2.86,1.39-2.65,1.22-1.68,5.81,2.44,5.81,2.48,0,3.91-1.22,3.91-3.2,0-5.93-12.49-4.21-12.49-12.03,0-3.79,3.79-5.81,7.99-5.81,1.35,0,2.78.34,4.08.34.8,0,1.6-.13,2.27-.5l.38-.21h.25l.46,7.87h-.84c-1.05-4.8-3.83-6.65-6.69-6.65-1.85,0-3.79,1.09-3.79,3.2,0,5.43,13.04,3.53,13.04,11.91,0,4.54-5.34,5.93-8.88,5.93s-8.33-1.22-8.33-4.88Z"/>
    <path class="cls-1" d="M221.05,37.62c-.71.55-1.72,1.51-1.72,2.48,0,.67.55,1.3,2.1,1.3,1.85,0,4.71-.84,6.98-.84,3.91,0,6.56,1.51,6.56,6.1,0,6.14-6.1,8.79-11.61,8.79-4.63,0-8.83-1.85-8.83-5.05,0-2.99,3.28-4.71,5.6-5.26-2.1-.29-3.62-1.09-3.62-3.03s2.4-3.79,3.66-4.84c-6.69-3.07-5.05-12.28,4.96-12.28.34,0,.76,0,1.01.04,1.51-2.06,3.96-3.83,6.61-3.83,3.95,0,4.54,4.29,1.05,5.17.25-2.02-.93-3.32-2.95-3.32-1.26,0-2.69.67-3.74,2.06,9.97,1.39,9.3,13.13-1.98,13.13-1.56,0-2.95-.25-4.08-.63ZM226.56,52.17c3.16,0,7.36-1.18,7.36-4.16,0-2.82-4.04-2.78-6.1-2.78-1.43,0-2.95.08-4.42.08-3.32.17-4.96,1.05-4.96,2.9s2.36,3.95,8.12,3.95ZM225.13,25.84c-4.84,0-4.84,11.57,0,11.57s4.84-11.57,0-11.57Z"/>
    <path class="cls-1" d="M258.03,40.77c0,1.6,1.05,2.65,2.65,2.65h.21v.84c-1.43,0-5.13,0-7.49,2.82h-.42v-5.05c-2.19,2.4-5.05,4.42-8.33,4.42-5.34,0-6.86-4.25-6.86-6.9,0-3.28.84-4.88.84-8.75,0-1.85-.63-4.96-2.9-4.96h-.04v-.84h2.78c4.54,0,5.22,3.37,5.22,5.38,0,3.2-.84,4.84-.84,8.2,0,2.31,1.35,5.05,4.38,5.05,2.14,0,3.95-1.01,5.76-2.86v-10.52c0-1.6-1.05-2.65-2.65-2.65h-.21v-.84c1.43,0,5.13,0,7.49-2.82h.42v16.83Z"/>
    <path class="cls-1" d="M263.83,30.25c0-1.6-1.05-2.65-2.65-2.65h-.21v-.84c1.43,0,5.13,0,7.49-2.82h.42v18.43c0,1.68,1.13,2.82,2.82,2.82h.04v.84h-10.77v-.84h.04c1.68,0,2.82-1.14,2.82-2.82v-12.12ZM266.4,17.25c1.64,0,2.73,1.09,2.73,2.73s-1.09,2.73-2.73,2.73-2.73-1.09-2.73-2.73,1.09-2.73,2.73-2.73Z"/>
    <path class="cls-1" d="M272.58,41.57c0-1.77,1.52-3.16,3.32-3.16.93,0,1.98.42,2.86,1.39-2.65,1.22-1.68,5.81,2.44,5.81,2.48,0,3.91-1.22,3.91-3.2,0-5.93-12.49-4.21-12.49-12.03,0-3.79,3.79-5.81,7.99-5.81,1.35,0,2.78.34,4.08.34.8,0,1.6-.13,2.27-.5l.38-.21h.25l.46,7.87h-.84c-1.05-4.8-3.83-6.65-6.69-6.65-1.85,0-3.79,1.09-3.79,3.2,0,5.43,13.04,3.53,13.04,11.91,0,4.54-5.34,5.93-8.88,5.93s-8.33-1.22-8.33-4.88Z"/>
    <path class="cls-1" d="M310.31,39.76c-1.56,4.33-5.72,6.69-9.34,6.69-12.87,0-13.63-21.88.29-21.88,5.68,0,8.46,2.99,8.46,5.85,0,5.72-10.14,4.54-10.14,8.58,0,2.48,2.48,3.7,4.84,3.7,2.15,0,4.17-1.05,5.43-3.16l.46.21ZM298.74,38.96c0-4.04,6.1-4.92,6.1-10.26,0-2.23-1.35-3.28-3.54-3.28-6.44,0-7.32,10.9-2.14,15.4-.29-.55-.42-1.14-.42-1.85Z"/>
  </g>
</svg>