<?xml version="1.0" encoding="UTF-8"?>
<svg id="nav" xmlns="http://www.w3.org/2000/svg" xmlns:xlink="http://www.w3.org/1999/xlink" viewBox="0 0 533.16 240.73">
  <defs>
    <style>
      .cls-1 {
        fill: #8feaff;
      }

      .cls-2 {
        fill: none;
        stroke: #fff;
        stroke-miterlimit: 10;
      }

      .cls-3 {
        fill: url(#linear-gradient);
      }
    </style>
    <linearGradient id="linear-gradient" x1="267.11" y1="72.54" x2="266.14" y2="212.82" gradientUnits="userSpaceOnUse">
      <stop offset="0" stop-color="#00bcdf"/>
      <stop offset="1" stop-color="#fff"/>
    </linearGradient>
  </defs>
  <g>
    <g>
      <g>
        <path class="cls-1" d="M76.43,83.9c2.9,0,5.96-.76,10.09-3.21l1.22-.76h.92l1.68,28.58h-3.06c-2.9-13.76-14.52-24-29.04-24-42.19,0-32.71,86.82,5.5,86.82,4.28,0,8.41-1.53,12.08-4.13v-29.04c0-6.11-4.13-10.24-10.24-10.24h-.15v-3.06h39.13v3.06h-.15c-6.11,0-10.24,4.13-10.24,10.24v21.55c-12.23,10.39-23.69,16.66-39.59,16.66-57.32,0-57.93-94.92,2.29-94.92,9.32,0,14.22,2.45,19.57,2.45Z"/>
        <path class="cls-1" d="M142.92,96.89c22.93,0,38.21,15.29,38.21,39.74s-15.29,39.74-38.21,39.74-38.21-15.28-38.21-39.74,15.29-39.74,38.21-39.74ZM142.92,173.32c12.23,0,18.34-16.2,18.34-36.69s-6.11-36.69-18.34-36.69-18.34,16.2-18.34,36.69,6.12,36.69,18.34,36.69ZM142,146.42c-.46-5.2-3.97-8.56-9.32-8.87-3.36-.15-6.27-.76-6.27-1.99,0-.31.31-.46.61-.46h.15c.46,0,.92,0,1.38.15h2.75c.46.15.92.15,1.38.15,5.04.31,8.56-3.21,8.87-8.71.15-3.67.61-7.18,1.99-7.18.31,0,.46.3.46.61v.15c-.15,2.14-.31,4.13-.46,6.27-.15,5.2,3.52,8.56,8.87,8.1,1.68-.15,3.36-.15,5.04-.15.76,0,2.14.77,2.14,1.53,0,.31-.15.46-.46.46-2.14.31-4.43.46-6.57.61-5.35.46-8.56,4.13-8.1,9.32.15,1.38.15,2.6.15,3.97,0,.76-.76,2.14-1.53,2.14-.31,0-.46-.15-.46-.46-.31-1.83-.46-3.82-.61-5.66Z"/>
        <path class="cls-1" d="M193.82,117.53c0-5.81-3.82-9.63-9.63-9.63h-.76v-3.06c5.2,0,18.65,0,27.21-10.24h1.53v66.95c0,6.11,4.13,10.24,10.24,10.24h.15v3.06h-39.13v-3.06h.15c6.11,0,10.24-4.13,10.24-10.24v-44.02ZM203.14,70.29c5.96,0,9.94,3.97,9.94,9.93s-3.97,9.94-9.94,9.94-9.94-3.98-9.94-9.94,3.97-9.93,9.94-9.93Z"/>
        <path class="cls-1" d="M348.81,128.68c0,23.39-11.92,46.16-42.34,46.16h-47.39v-3.06h10.39v-50.75h-11.92v-4.59h11.92v-30.42h-10.39v-3.06h47.39c30.42,0,42.34,22.78,42.34,45.7ZM302.8,171.79c19.72,0,25.98-21.4,25.98-42.8s-6.27-42.95-25.98-42.95h-14.98v30.42h7.49v4.59h-7.49v50.75h14.98Z"/>
        <path class="cls-1" d="M400.78,159.56c-7.34,5.2-15.44,16.97-28.74,16.97-11.62,0-20.18-8.1-20.18-19.72,0-24.92,34.85-21.09,34.85-27.21,0-1.53-1.68-1.68-2.9-1.68-2.75,0-6.88.61-10.7.61-6.27,0-12.23-1.53-12.23-9.78,0-12.07,20.33-21.86,34.09-21.86s24,5.96,24.15,20.64v38.21c0,5.81,3.82,9.63,9.63,9.63h.76v3.06c-5.2,0-18.65,0-27.21,10.24h-1.53v-19.11ZM400.78,117.83c0-11.46-6.88-16.36-13.6-16.36-5.96,0-11.77,3.97-11.77,10.7,0,14.21,14.37,11.46,14.37,17.12,0,2.29-1.38,3.97-3.67,5.2-5.81,2.91-16.05,4.28-16.05,15.44,0,7.49,4.43,12.53,12.38,12.53,8.71,0,14.06-3.21,18.34-6.42v-38.21ZM373.87,93.07l14.22-24.61h13.6l14.22,24.61h-2.29l-20.33-15.9-17.12,15.9h-2.29Z"/>
        <path class="cls-1" d="M511.13,155.74c0,5.81,3.82,9.63,9.63,9.63h.76v3.06c-5.2,0-18.65,0-27.21,10.24h-1.53v-18.34c-7.95,8.71-18.34,16.05-30.27,16.05-19.41,0-24.92-15.44-24.92-25.07,0-11.92,3.06-17.73,3.06-31.79,0-6.73-2.29-18.04-10.55-18.04h-.15v-3.06h10.09c16.51,0,18.95,12.23,18.95,19.57,0,11.62-3.06,17.58-3.06,29.81,0,8.41,4.89,18.34,15.9,18.34,7.8,0,14.37-3.67,20.94-10.39v-38.21c0-5.81-3.82-9.63-9.63-9.63h-.76v-3.06c5.2,0,18.65,0,27.21-10.24h1.53v61.14Z"/>
      </g>
      <path class="cls-1" d="M124.71,91.36l14.22-24.61h13.61l14.22,24.61h-2.29l-20.33-15.9-17.12,15.9h-2.29Z"/>
      <path class="cls-1" d="M420.23,66.75l-21.86-25.83h16.66l7.8,25.83h-2.6Z"/>
    </g>
    <path class="cls-1" d="M133.71,191.72c0-4.43,3.67-8.1,8.1-8.1s8.1,3.52,8.1,8.1-3.67,8.1-8.1,8.1-8.1-3.67-8.1-8.1Z"/>
  </g>
  <g>
    <g>
      <g>
        <path class="cls-3" d="M76.43,83.9c2.9,0,5.96-.76,10.09-3.21l1.22-.76h.92l1.68,28.58h-3.06c-2.9-13.76-14.52-24-29.04-24-42.19,0-32.71,86.82,5.5,86.82,4.28,0,8.41-1.53,12.08-4.13v-29.04c0-6.11-4.13-10.24-10.24-10.24h-.15v-3.06h39.13v3.06h-.15c-6.11,0-10.24,4.13-10.24,10.24v21.55c-12.23,10.39-23.69,16.66-39.59,16.66-57.32,0-57.93-94.92,2.29-94.92,9.32,0,14.22,2.45,19.57,2.45Z"/>
        <path class="cls-3" d="M142.92,96.89c22.93,0,38.21,15.29,38.21,39.74s-15.29,39.74-38.21,39.74-38.21-15.28-38.21-39.74,15.29-39.74,38.21-39.74ZM142.92,173.32c12.23,0,18.34-16.2,18.34-36.69s-6.11-36.69-18.34-36.69-18.34,16.2-18.34,36.69,6.12,36.69,18.34,36.69ZM142,146.42c-.46-5.2-3.97-8.56-9.32-8.87-3.36-.15-6.27-.76-6.27-1.99,0-.31.31-.46.61-.46h.15c.46,0,.92,0,1.38.15h2.75c.46.15.92.15,1.38.15,5.04.31,8.56-3.21,8.87-8.71.15-3.67.61-7.18,1.99-7.18.31,0,.46.3.46.61v.15c-.15,2.14-.31,4.13-.46,6.27-.15,5.2,3.52,8.56,8.87,8.1,1.68-.15,3.36-.15,5.04-.15.76,0,2.14.77,2.14,1.53,0,.31-.15.46-.46.46-2.14.31-4.43.46-6.57.61-5.35.46-8.56,4.13-8.1,9.32.15,1.38.15,2.6.15,3.97,0,.76-.76,2.14-1.53,2.14-.31,0-.46-.15-.46-.46-.31-1.83-.46-3.82-.61-5.66Z"/>
        <path class="cls-3" d="M193.82,117.53c0-5.81-3.82-9.63-9.63-9.63h-.76v-3.06c5.2,0,18.65,0,27.21-10.24h1.53v66.95c0,6.11,4.13,10.24,10.24,10.24h.15v3.06h-39.13v-3.06h.15c6.11,0,10.24-4.13,10.24-10.24v-44.02ZM203.14,70.29c5.96,0,9.94,3.97,9.94,9.93s-3.97,9.94-9.94,9.94-9.94-3.98-9.94-9.94,3.97-9.93,9.94-9.93Z"/>
        <path class="cls-3" d="M348.81,128.68c0,23.39-11.92,46.16-42.34,46.16h-47.39v-3.06h10.39v-50.75h-11.92v-4.59h11.92v-30.42h-10.39v-3.06h47.39c30.42,0,42.34,22.78,42.34,45.7ZM302.8,171.79c19.72,0,25.98-21.4,25.98-42.8s-6.27-42.95-25.98-42.95h-14.98v30.42h7.49v4.59h-7.49v50.75h14.98Z"/>
        <path class="cls-3" d="M400.78,159.56c-7.34,5.2-15.44,16.97-28.74,16.97-11.62,0-20.18-8.1-20.18-19.72,0-24.92,34.85-21.09,34.85-27.21,0-1.53-1.68-1.68-2.9-1.68-2.75,0-6.88.61-10.7.61-6.27,0-12.23-1.53-12.23-9.78,0-12.07,20.33-21.86,34.09-21.86s24,5.96,24.15,20.64v38.21c0,5.81,3.82,9.63,9.63,9.63h.76v3.06c-5.2,0-18.65,0-27.21,10.24h-1.53v-19.11ZM400.78,117.83c0-11.46-6.88-16.36-13.6-16.36-5.96,0-11.77,3.97-11.77,10.7,0,14.21,14.37,11.46,14.37,17.12,0,2.29-1.38,3.97-3.67,5.2-5.81,2.91-16.05,4.28-16.05,15.44,0,7.49,4.43,12.53,12.38,12.53,8.71,0,14.06-3.21,18.34-6.42v-38.21ZM373.87,93.07l14.22-24.61h13.6l14.22,24.61h-2.29l-20.33-15.9-17.12,15.9h-2.29Z"/>
        <path class="cls-3" d="M511.13,155.74c0,5.81,3.82,9.63,9.63,9.63h.76v3.06c-5.2,0-18.65,0-27.21,10.24h-1.53v-18.34c-7.95,8.71-18.34,16.05-30.27,16.05-19.41,0-24.92-15.44-24.92-25.07,0-11.92,3.06-17.73,3.06-31.79,0-6.73-2.29-18.04-10.55-18.04h-.15v-3.06h10.09c16.51,0,18.95,12.23,18.95,19.57,0,11.62-3.06,17.58-3.06,29.81,0,8.41,4.89,18.34,15.9,18.34,7.8,0,14.37-3.67,20.94-10.39v-38.21c0-5.81-3.82-9.63-9.63-9.63h-.76v-3.06c5.2,0,18.65,0,27.21-10.24h1.53v61.14Z"/>
      </g>
      <path class="cls-3" d="M124.71,91.36l14.22-24.61h13.61l14.22,24.61h-2.29l-20.33-15.9-17.12,15.9h-2.29Z"/>
      <path class="cls-3" d="M420.23,66.75l-21.86-25.83h16.66l7.8,25.83h-2.6Z"/>
    </g>
    <path class="cls-3" d="M133.71,191.72c0-4.43,3.67-8.1,8.1-8.1s8.1,3.52,8.1,8.1-3.67,8.1-8.1,8.1-8.1-3.67-8.1-8.1Z"/>
  </g>
  <g>
    <g>
      <g>
        <path class="cls-2" d="M76.43,83.9c2.9,0,5.96-.76,10.09-3.21l1.22-.76h.92l1.68,28.58h-3.06c-2.9-13.76-14.52-24-29.04-24-42.19,0-32.71,86.82,5.5,86.82,4.28,0,8.41-1.53,12.08-4.13v-29.04c0-6.11-4.13-10.24-10.24-10.24h-.15v-3.06h39.13v3.06h-.15c-6.11,0-10.24,4.13-10.24,10.24v21.55c-12.23,10.39-23.69,16.66-39.59,16.66-57.32,0-57.93-94.92,2.29-94.92,9.32,0,14.22,2.45,19.57,2.45Z"/>
        <path class="cls-2" d="M142.92,96.89c22.93,0,38.21,15.29,38.21,39.74s-15.29,39.74-38.21,39.74-38.21-15.28-38.21-39.74,15.29-39.74,38.21-39.74ZM142.92,173.32c12.23,0,18.34-16.2,18.34-36.69s-6.11-36.69-18.34-36.69-18.34,16.2-18.34,36.69,6.12,36.69,18.34,36.69ZM142,146.42c-.46-5.2-3.97-8.56-9.32-8.87-3.36-.15-6.27-.76-6.27-1.99,0-.31.31-.46.61-.46h.15c.46,0,.92,0,1.38.15h2.75c.46.15.92.15,1.38.15,5.04.31,8.56-3.21,8.87-8.71.15-3.67.61-7.18,1.99-7.18.31,0,.46.3.46.61v.15c-.15,2.14-.31,4.13-.46,6.27-.15,5.2,3.52,8.56,8.87,8.1,1.68-.15,3.36-.15,5.04-.15.76,0,2.14.77,2.14,1.53,0,.31-.15.46-.46.46-2.14.31-4.43.46-6.57.61-5.35.46-8.56,4.13-8.1,9.32.15,1.38.15,2.6.15,3.97,0,.76-.76,2.14-1.53,2.14-.31,0-.46-.15-.46-.46-.31-1.83-.46-3.82-.61-5.66Z"/>
        <path class="cls-2" d="M193.82,117.53c0-5.81-3.82-9.63-9.63-9.63h-.76v-3.06c5.2,0,18.65,0,27.21-10.24h1.53v66.95c0,6.11,4.13,10.24,10.24,10.24h.15v3.06h-39.13v-3.06h.15c6.11,0,10.24-4.13,10.24-10.24v-44.02ZM203.14,70.29c5.96,0,9.94,3.97,9.94,9.93s-3.97,9.94-9.94,9.94-9.94-3.98-9.94-9.94,3.97-9.93,9.94-9.93Z"/>
        <path class="cls-2" d="M348.81,128.68c0,23.39-11.92,46.16-42.34,46.16h-47.39v-3.06h10.39v-50.75h-11.92v-4.59h11.92v-30.42h-10.39v-3.06h47.39c30.42,0,42.34,22.78,42.34,45.7ZM302.8,171.79c19.72,0,25.98-21.4,25.98-42.8s-6.27-42.95-25.98-42.95h-14.98v30.42h7.49v4.59h-7.49v50.75h14.98Z"/>
        <path class="cls-2" d="M400.78,159.56c-7.34,5.2-15.44,16.97-28.74,16.97-11.62,0-20.18-8.1-20.18-19.72,0-24.92,34.85-21.09,34.85-27.21,0-1.53-1.68-1.68-2.9-1.68-2.75,0-6.88.61-10.7.61-6.27,0-12.23-1.53-12.23-9.78,0-12.07,20.33-21.86,34.09-21.86s24,5.96,24.15,20.64v38.21c0,5.81,3.82,9.63,9.63,9.63h.76v3.06c-5.2,0-18.65,0-27.21,10.24h-1.53v-19.11ZM400.78,117.83c0-11.46-6.88-16.36-13.6-16.36-5.96,0-11.77,3.97-11.77,10.7,0,14.21,14.37,11.46,14.37,17.12,0,2.29-1.38,3.97-3.67,5.2-5.81,2.91-16.05,4.28-16.05,15.44,0,7.49,4.43,12.53,12.38,12.53,8.71,0,14.06-3.21,18.34-6.42v-38.21ZM373.87,93.07l14.22-24.61h13.6l14.22,24.61h-2.29l-20.33-15.9-17.12,15.9h-2.29Z"/>
        <path class="cls-2" d="M511.13,155.74c0,5.81,3.82,9.63,9.63,9.63h.76v3.06c-5.2,0-18.65,0-27.21,10.24h-1.53v-18.34c-7.95,8.71-18.34,16.05-30.27,16.05-19.41,0-24.92-15.44-24.92-25.07,0-11.92,3.06-17.73,3.06-31.79,0-6.73-2.29-18.04-10.55-18.04h-.15v-3.06h10.09c16.51,0,18.95,12.23,18.95,19.57,0,11.62-3.06,17.58-3.06,29.81,0,8.41,4.89,18.34,15.9,18.34,7.8,0,14.37-3.67,20.94-10.39v-38.21c0-5.81-3.82-9.63-9.63-9.63h-.76v-3.06c5.2,0,18.65,0,27.21-10.24h1.53v61.14Z"/>
      </g>
      <path class="cls-2" d="M124.71,91.36l14.22-24.61h13.61l14.22,24.61h-2.29l-20.33-15.9-17.12,15.9h-2.29Z"/>
      <path class="cls-2" d="M420.23,66.75l-21.86-25.83h16.66l7.8,25.83h-2.6Z"/>
    </g>
    <path class="cls-2" d="M133.71,191.72c0-4.43,3.67-8.1,8.1-8.1s8.1,3.52,8.1,8.1-3.67,8.1-8.1,8.1-8.1-3.67-8.1-8.1Z"/>
  </g>
</svg>