<?xml version="1.0" encoding="UTF-8"?>
<svg id="nav" xmlns="http://www.w3.org/2000/svg" xmlns:xlink="http://www.w3.org/1999/xlink" viewBox="0 0 325.55 173.5">
  <defs>
    <style>
      .cls-1 {
        fill: url(#linear-gradient);
      }

      .cls-2 {
        fill: none;
        stroke: #fff;
        stroke-miterlimit: 10;
      }

      .cls-2, .cls-3 {
        font-family: cinemasunday-Regular, 'cinema sunday';
        font-size: 72px;
      }
    </style>
    <linearGradient id="linear-gradient" x1="22.96" y1="96.15" x2="312.4" y2="96.15" gradientUnits="userSpaceOnUse">
      <stop offset="0" stop-color="#fff"/>
      <stop offset="1" stop-color="#9ffff2"/>
    </linearGradient>
  </defs>
  <text class="cls-3" transform="translate(22.6 83.76)"><tspan x="0" y="0">Selfish of </tspan><tspan x="0" y="61">Human</tspan></text>
  <g>
    <path class="cls-1" d="M24.62,71.74h1.44c1.37,6.41,8.93,11.31,15.77,11.31,5.69,0,9.94-1.66,9.94-6.55,0-13.18-28.08-8.42-28.08-24.91,0-8.21,9.36-11.81,16.27-11.81,4.39,0,6.77,1.08,9.29,1.08,1.37,0,2.81-.29,4.68-1.44l.58-.36h.43l.79,13.46h-1.44c-1.37-6.48-7.7-11.3-14.54-11.3-4.03,0-8.57,1.87-8.64,6.55-.14,12.75,27.58,8.42,27.58,24.27,0,8.79-8.57,12.46-16.27,12.46-5.69,0-8.79-1.66-11.81-1.66-1.37,0-2.74.36-4.32,1.3l-.58.36h-.43l-.65-12.75Z"/>
    <path class="cls-1" d="M93.88,73.03c-2.66,7.42-9.79,11.45-15.98,11.45-22.03,0-23.33-37.44.5-37.44,9.72,0,14.47,5.11,14.47,10.01,0,9.79-17.35,7.78-17.35,14.69,0,4.25,4.25,6.34,8.28,6.34,3.67,0,7.13-1.8,9.29-5.4l.79.36ZM74.08,71.67c0-6.91,10.44-8.42,10.44-17.57,0-3.82-2.3-5.62-6.05-5.62-11.02,0-12.53,18.65-3.67,26.35-.5-.94-.72-1.94-.72-3.17Z"/>
    <path class="cls-1" d="M100.22,42.94c0-2.74-1.8-4.54-4.54-4.54h-.36v-1.44c2.45,0,8.79,0,12.82-4.83h.72v45.36c0,2.88,1.95,4.82,4.82,4.82h.07v1.44h-18.43v-1.44h.07c2.88,0,4.82-1.94,4.82-4.82v-34.56Z"/>
    <path class="cls-1" d="M127.86,49.2v28.3c.07,2.88,2.02,4.82,4.9,4.82h.07v1.44h-18.51v-1.44h.07c2.88,0,4.82-1.94,4.82-4.82v-28.3h-4.39v-1.44h4.39v-2.3c0-7.78,2.45-12.82,11.38-12.82,6.48,0,16.06,4.68,16.06,10.3,0,2.74-2.66,4.18-5.26,4.18-2.16,0-4.25-.94-4.9-2.95,5.76-2.16,3.38-9.36-2.23-9.36-2.95,0-6.41,2.16-6.41,7.7v5.26h3.53c4.03,0,6.98.94,9.51.94,2.02,0,3.74-.58,5.54-2.74h.72v31.54c0,2.88,1.95,4.82,4.82,4.82h.07v1.44h-18.43v-1.44h.07c2.88,0,4.82-1.94,4.82-4.82v-20.74c0-2.74.36-7.56-6.98-7.56h-3.67Z"/>
    <path class="cls-1" d="M153.49,76.13c0-3.02,2.59-5.4,5.69-5.4,1.58,0,3.38.72,4.9,2.38-4.54,2.09-2.88,9.94,4.18,9.94,4.25,0,6.7-2.09,6.7-5.47,0-10.15-21.38-7.2-21.38-20.59,0-6.48,6.48-9.94,13.68-9.94,2.3,0,4.75.58,6.99.58,1.37,0,2.73-.22,3.89-.86l.65-.36h.43l.79,13.46h-1.44c-1.8-8.21-6.55-11.38-11.45-11.38-3.17,0-6.48,1.87-6.48,5.47,0,9.29,22.32,6.05,22.32,20.38,0,7.78-9.14,10.15-15.19,10.15s-14.26-2.09-14.26-8.35Z"/>
    <path class="cls-1" d="M189.28,42.94c0-2.74-1.8-4.54-4.54-4.54h-.36v-1.44c2.45,0,8.79,0,12.82-4.83h.72v22.47c3.74-4.1,8.64-7.56,14.26-7.56,7.78,0,10.44,5.54,10.44,11.81,0,8.06-1.44,13.68-1.44,20.31,0,15.84,5.62,18.58,10.22,18.58,6.77,0,7.42-8.28,4.75-11.88,10.94-2.09,11.38,13.32-5.11,13.32-8.28,0-18.51-3.74-18.51-20.16,0-5.18,1.44-12.67,1.44-18.43,0-3.96-1.01-8.71-6.19-8.71-3.67,0-6.77,1.73-9.87,4.9v20.74c0,2.88,1.95,4.82,4.82,4.82h.07v1.44h-18.43v-1.44h.07c2.88,0,4.82-1.94,4.82-4.82v-34.56Z"/>
    <path class="cls-1" d="M261.13,47.04c10.8,0,18,7.2,18,18.72s-7.2,18.72-18,18.72-18-7.2-18-18.72,7.2-18.72,18-18.72ZM261.13,83.04c5.76,0,8.64-7.63,8.64-17.28s-2.88-17.28-8.64-17.28-8.64,7.63-8.64,17.28,2.88,17.28,8.64,17.28ZM260.7,70.37c-.22-2.45-1.87-4.03-4.39-4.18-1.58-.07-2.95-.36-2.95-.94,0-.14.14-.22.29-.22h.07c.22,0,.43,0,.65.07h1.29c.22.07.43.07.65.07,2.38.14,4.03-1.51,4.18-4.1.07-1.73.29-3.38.94-3.38.14,0,.21.14.21.29v.07c-.07,1.01-.14,1.94-.21,2.95-.07,2.45,1.66,4.03,4.18,3.82.79-.07,1.58-.07,2.38-.07.36,0,1.01.36,1.01.72,0,.14-.07.22-.22.22-1.01.14-2.09.22-3.1.29-2.52.22-4.03,1.94-3.82,4.39.07.65.07,1.22.07,1.87,0,.36-.36,1.01-.72,1.01-.14,0-.22-.07-.22-.22-.14-.86-.21-1.8-.29-2.67Z"/>
    <path class="cls-1" d="M280.07,82.32h.07c2.88,0,4.82-1.94,4.82-4.82v-28.3h-4.39v-1.44h4.39v-2.3c0-7.78,2.45-12.82,11.38-12.82,6.48,0,16.06,4.68,16.06,10.3,0,2.74-2.66,4.18-5.26,4.18-2.16,0-4.25-.94-4.9-2.95,5.76-2.16,3.38-9.36-2.23-9.36-2.95,0-6.41,2.16-6.41,7.7v5.26h9.51v1.44h-9.51v28.3c.07,2.88,2.02,4.82,4.9,4.82h.07v1.44h-18.51v-1.44Z"/>
    <path class="cls-1" d="M22.96,143.32h.07c2.88,0,4.82-1.94,4.82-4.82v-30.75c0-2.88-1.94-4.83-4.82-4.83h-.07v-1.44h18.43v1.44h-.07c-2.88,0-4.82,1.94-4.82,4.83v13.32h17.5v-13.32c0-2.88-1.95-4.83-4.82-4.83h-.07v-1.44h18.43v1.44h-.07c-2.88,0-4.82,1.94-4.82,4.83v30.75c0,2.88,1.94,4.82,4.82,4.82h.07v1.44h-18.43v-1.44h.07c2.88,0,4.82-1.94,4.82-4.82v-15.99h-17.5v15.99c0,2.88,1.95,4.82,4.82,4.82h.07v1.44h-18.43v-1.44Z"/>
    <path class="cls-1" d="M81.86,131.95c0,3.96,1.01,8.79,6.19,8.79,3.67,0,6.7-1.8,9.79-4.97v-18c0-2.74-1.8-4.54-4.54-4.54h-.36v-1.44c2.45,0,8.78,0,12.82-4.83h.72v28.8c0,2.74,1.8,4.54,4.54,4.54h.36v1.44c-2.45,0-8.79,0-12.82,4.82h-.72v-8.64c-3.67,4.1-8.5,7.56-14.19,7.56-7.78,0-10.44-6.77-10.44-13.46v-14.26c0-2.74-1.8-4.54-4.54-4.54h-.36v-1.44c2.45,0,8.79,0,12.82-4.83h.72v24.99Z"/>
    <path class="cls-1" d="M116.41,117.76c0-2.74-1.8-4.54-4.54-4.54h-.36v-1.44c2.45,0,8.79,0,12.82-4.83h.72v8.57c3.17-4.03,7.42-7.49,12.31-7.49,5.47,0,7.56,3.02,8.21,7.71,3.24-4.18,7.49-7.71,12.46-7.71,6.77,0,8.43,4.61,8.43,11.31v19.15c0,2.81,2.02,4.82,4.9,4.82h.07v1.44h-18.51v-1.44h.07c2.88,0,4.82-1.94,4.82-4.82v-20.52c0-3.24-1.87-4.61-4.18-4.61-2.66,0-6.05,1.8-7.92,4.75v.29l.07.65v19.44c0,2.81,2.02,4.82,4.9,4.82h.07v1.44h-18.51v-1.44h.07c2.88,0,4.82-1.94,4.82-4.82v-20.52c0-3.24-1.87-4.61-4.18-4.61-2.74,0-6.05,1.8-7.92,4.75v20.38c0,2.88,1.95,4.82,4.82,4.82h.07v1.44h-18.43v-1.44h.07c2.88,0,4.82-1.94,4.82-4.82v-20.74Z"/>
    <path class="cls-1" d="M195.33,137.56c-3.46,2.45-7.27,7.99-13.54,7.99-5.47,0-9.5-3.82-9.5-9.29,0-11.74,16.42-9.94,16.42-12.82,0-.72-.79-.79-1.37-.79-1.29,0-3.24.29-5.04.29-2.95,0-5.76-.72-5.76-4.61,0-5.69,9.58-10.3,16.06-10.3s11.31,2.81,11.38,9.72v18c0,2.74,1.8,4.54,4.54,4.54h.36v1.44c-2.45,0-8.78,0-12.82,4.82h-.72v-9ZM195.33,117.9c0-5.4-3.24-7.7-6.41-7.7-2.81,0-5.54,1.87-5.54,5.04,0,6.7,6.77,5.4,6.77,8.06,0,1.08-.65,1.87-1.73,2.45-2.74,1.37-7.56,2.02-7.56,7.27,0,3.53,2.09,5.91,5.83,5.91,4.11,0,6.62-1.51,8.64-3.02v-18Z"/>
    <path class="cls-1" d="M214.05,117.76c0-2.74-1.8-4.54-4.54-4.54h-.36v-1.44c2.45,0,8.79,0,12.82-4.83h.72v8.64c3.74-4.1,8.64-7.56,14.26-7.56,7.78,0,10.44,5.54,10.44,11.81,0,8.06-1.44,13.68-1.44,20.31,0,15.84,5.62,18.58,10.22,18.58,6.77,0,7.42-8.28,4.75-11.88,10.94-2.09,11.38,13.32-5.11,13.32-8.28,0-18.51-3.74-18.51-20.16,0-5.18,1.44-12.67,1.44-18.43,0-3.96-1.01-8.71-6.19-8.71-3.67,0-6.77,1.73-9.87,4.9v20.74c0,2.88,1.95,4.82,4.82,4.82h.07v1.44h-18.43v-1.44h.07c2.88,0,4.82-1.94,4.82-4.82v-20.74Z"/>
  </g>
  <text class="cls-2" transform="translate(22.6 83.76)"><tspan x="0" y="0">Selfish of </tspan><tspan x="0" y="61">Human</tspan></text>
</svg>