<?xml version="1.0" encoding="UTF-8"?>
<svg id="nav" xmlns="http://www.w3.org/2000/svg" xmlns:xlink="http://www.w3.org/1999/xlink" version="1.1" viewBox="0 0 918.25 411.22">
  <!-- Generator: Adobe Illustrator 29.8.7, SVG Export Plug-In . SVG Version: 2.1.1 Build 1)  -->
  <defs>
    <style>
      .st0 {
        fill: url(#linear-gradient2);
      }

      .st1 {
        fill: url(#linear-gradient1);
      }

      .st2 {
        fill: url(#linear-gradient9);
      }

      .st3 {
        fill: url(#linear-gradient3);
      }

      .st4 {
        fill: url(#linear-gradient6);
      }

      .st5 {
        fill: url(#linear-gradient8);
      }

      .st6 {
        fill: url(#linear-gradient7);
      }

      .st7 {
        fill: url(#linear-gradient5);
      }

      .st8 {
        fill: url(#linear-gradient4);
      }

      .st9 {
        fill: url(#linear-gradient12);
      }

      .st10 {
        fill: url(#linear-gradient11);
      }

      .st11 {
        fill: url(#linear-gradient10);
      }

      .st12 {
        fill: url(#linear-gradient);
      }
    </style>
    <linearGradient id="linear-gradient" x1="138.16" y1="353.65" x2="146.84" y2="211.95" gradientTransform="translate(0 414) scale(1 -1)" gradientUnits="userSpaceOnUse">
      <stop offset="0" stop-color="#fff"/>
      <stop offset="1" stop-color="#9ffff2"/>
    </linearGradient>
    <linearGradient id="linear-gradient1" x1="236.47" y1="359.68" x2="245.15" y2="217.97" gradientTransform="translate(0 414) scale(1 -1)" gradientUnits="userSpaceOnUse">
      <stop offset="0" stop-color="#fff"/>
      <stop offset="1" stop-color="#9ffff2"/>
    </linearGradient>
    <linearGradient id="linear-gradient2" x1="308.36" y1="364.08" x2="317.03" y2="222.37" gradientTransform="translate(0 414) scale(1 -1)" gradientUnits="userSpaceOnUse">
      <stop offset="0" stop-color="#fff"/>
      <stop offset="1" stop-color="#9ffff2"/>
    </linearGradient>
    <linearGradient id="linear-gradient3" x1="386.67" y1="368.88" x2="395.34" y2="227.17" gradientTransform="translate(0 414) scale(1 -1)" gradientUnits="userSpaceOnUse">
      <stop offset="0" stop-color="#fff"/>
      <stop offset="1" stop-color="#9ffff2"/>
    </linearGradient>
    <linearGradient id="linear-gradient4" x1="483.74" y1="374.82" x2="492.42" y2="233.11" gradientTransform="translate(0 414) scale(1 -1)" gradientUnits="userSpaceOnUse">
      <stop offset="0" stop-color="#fff"/>
      <stop offset="1" stop-color="#9ffff2"/>
    </linearGradient>
    <linearGradient id="linear-gradient5" x1="607.31" y1="382.38" x2="615.98" y2="240.67" gradientTransform="translate(0 414) scale(1 -1)" gradientUnits="userSpaceOnUse">
      <stop offset="0" stop-color="#fff"/>
      <stop offset="1" stop-color="#9ffff2"/>
    </linearGradient>
    <linearGradient id="linear-gradient6" x1="739.25" y1="390.45" x2="747.93" y2="248.75" gradientTransform="translate(0 414) scale(1 -1)" gradientUnits="userSpaceOnUse">
      <stop offset="0" stop-color="#fff"/>
      <stop offset="1" stop-color="#9ffff2"/>
    </linearGradient>
    <linearGradient id="linear-gradient7" x1="835.6" y1="396.35" x2="844.28" y2="254.65" gradientTransform="translate(0 414) scale(1 -1)" gradientUnits="userSpaceOnUse">
      <stop offset="0" stop-color="#fff"/>
      <stop offset="1" stop-color="#9ffff2"/>
    </linearGradient>
    <linearGradient id="linear-gradient8" x1="140.5" y1="353.8" x2="149.18" y2="212.09" gradientTransform="translate(0 414) scale(1 -1)" gradientUnits="userSpaceOnUse">
      <stop offset="0" stop-color="#fff"/>
      <stop offset="1" stop-color="#9ffff2"/>
    </linearGradient>
    <linearGradient id="linear-gradient9" x1="261.79" y1="361.22" x2="270.47" y2="219.52" gradientTransform="translate(0 414) scale(1 -1)" gradientUnits="userSpaceOnUse">
      <stop offset="0" stop-color="#fff"/>
      <stop offset="1" stop-color="#9ffff2"/>
    </linearGradient>
    <linearGradient id="linear-gradient10" x1="399.99" y1="369.68" x2="408.67" y2="227.98" gradientTransform="translate(0 414) scale(1 -1)" gradientUnits="userSpaceOnUse">
      <stop offset="0" stop-color="#fff"/>
      <stop offset="1" stop-color="#9ffff2"/>
    </linearGradient>
    <linearGradient id="linear-gradient11" x1="535.19" y1="377.97" x2="543.86" y2="236.26" gradientTransform="translate(0 414) scale(1 -1)" gradientUnits="userSpaceOnUse">
      <stop offset="0" stop-color="#fff"/>
      <stop offset="1" stop-color="#9ffff2"/>
    </linearGradient>
    <linearGradient id="linear-gradient12" x1="665.73" y1="385.96" x2="674.4" y2="244.25" gradientTransform="translate(0 414) scale(1 -1)" gradientUnits="userSpaceOnUse">
      <stop offset="0" stop-color="#fff"/>
      <stop offset="1" stop-color="#9ffff2"/>
    </linearGradient>
  </defs>
  <path class="st12" d="M97.83,161.63h3.95c3.75,17.58,24.49,31.01,43.26,31.01,15.6,0,27.26-4.54,27.26-17.98,0-36.15-77.04-23.11-77.04-68.35,0-22.52,25.68-32.4,44.65-32.4,12.05,0,18.57,2.96,25.48,2.96,3.75,0,7.7-.79,12.84-3.95l1.58-.99h1.19l2.17,36.94h-3.95c-3.75-17.78-21.14-31.01-39.91-31.01-11.06,0-23.51,5.14-23.71,17.98-.39,34.97,75.66,23.11,75.66,66.58,0,24.1-23.51,34.18-44.64,34.18-15.6,0-24.1-4.54-32.4-4.54-3.75,0-7.51.99-11.85,3.56l-1.58.99h-1.19l-1.78-34.97h.01Z"/>
  <path class="st1" d="M287.87,165.19c-7.31,20.35-26.86,31.41-43.86,31.41-60.45,0-64-102.73,1.38-102.73,26.67,0,39.71,14.03,39.71,27.46,0,26.87-47.61,21.34-47.61,40.3,0,11.65,11.65,17.38,22.72,17.38,10.08,0,19.56-4.94,25.48-14.82l2.17.99h0ZM233.54,161.43c0-18.96,28.65-23.12,28.65-48.2,0-10.47-6.32-15.41-16.6-15.41-30.22,0-34.37,51.17-10.07,72.31-1.38-2.57-1.97-5.34-1.97-8.69h0Z"/>
  <path class="st0" d="M305.24,82.61c0-7.51-4.93-12.44-12.44-12.44h-.99v-3.95c6.71,0,24.1,0,35.16-13.23h1.97v124.45c0,7.9,5.33,13.24,13.24,13.24h.2v3.95h-50.57v-3.95h.2c7.9,0,13.23-5.33,13.23-13.24v-94.82h0Z"/>
  <path class="st3" d="M381.09,99.8v77.63c.2,7.9,5.53,13.24,13.43,13.24h.2v3.95h-50.77v-3.95h.2c7.9,0,13.23-5.33,13.23-13.24v-77.63h-12.05v-3.95h12.05v-6.32c0-21.34,6.71-35.16,31.21-35.16,17.78,0,44.05,12.84,44.05,28.25,0,7.51-7.31,11.46-14.42,11.46-5.92,0-11.65-2.57-13.43-8.1,15.8-5.93,9.28-25.68-6.12-25.68-8.1,0-17.58,5.92-17.58,21.14v14.42h9.68c11.06,0,19.16,2.57,26.07,2.57,5.53,0,10.27-1.58,15.21-7.51h1.98v86.52c0,7.9,5.33,13.24,13.23,13.24h.2v3.95h-50.57v-3.95h.2c7.9,0,13.24-5.33,13.24-13.24v-56.89c0-7.51.99-20.74-19.16-20.74h-10.08Z"/>
  <path class="st8" d="M451.41,173.68c0-8.29,7.11-14.81,15.61-14.81,4.34,0,9.28,1.97,13.43,6.52-12.45,5.73-7.9,27.26,11.46,27.26,11.66,0,18.37-5.73,18.37-15.01,0-27.85-58.67-19.76-58.67-56.5,0-17.78,17.78-27.26,37.53-27.26,6.32,0,13.04,1.58,19.16,1.58,3.75,0,7.51-.6,10.67-2.37l1.78-.99h1.19l2.17,36.94h-3.95c-4.94-22.52-17.98-31.21-31.41-31.21-8.69,0-17.78,5.14-17.78,15.01,0,25.48,61.24,16.59,61.24,55.91,0,21.33-25.09,27.85-41.68,27.85s-39.11-5.73-39.11-22.92h-.01Z"/>
  <path class="st7" d="M549.58,82.61c0-7.51-4.93-12.44-12.44-12.44h-.99v-3.95c6.72,0,24.1,0,35.16-13.23h1.97v61.64c10.27-11.26,23.71-20.75,39.11-20.75,21.34,0,28.65,15.21,28.65,32.4,0,22.12-3.95,37.54-3.95,55.71,0,43.46,15.41,50.97,28.05,50.97,18.57,0,20.35-22.72,13.04-32.59,30.03-5.73,31.21,36.54-14.03,36.54-22.72,0-50.77-10.27-50.77-55.31,0-14.23,3.95-34.77,3.95-50.57,0-10.87-2.77-23.9-16.99-23.9-10.08,0-18.57,4.74-27.07,13.43v56.89c0,7.9,5.33,13.24,13.24,13.24h.2v3.95h-50.57v-3.95h.2c7.9,0,13.23-5.33,13.23-13.24v-94.82h0v-.02Z"/>
  <path class="st4" d="M746.71,93.87c29.63,0,49.39,19.76,49.39,51.36s-19.76,51.36-49.39,51.36-49.39-19.76-49.39-51.36,19.75-51.36,49.39-51.36ZM746.71,192.64c15.8,0,23.7-20.94,23.7-47.41s-7.9-47.41-23.7-47.41-23.71,20.94-23.71,47.41,7.9,47.41,23.71,47.41h0ZM745.53,157.88c-.59-6.71-5.14-11.06-12.05-11.46-4.34-.2-8.1-.99-8.1-2.57,0-.39.39-.6.79-.6h.2c.59,0,1.18,0,1.78.2h3.56c.59.2,1.19.2,1.78.2,6.52.39,11.06-4.15,11.46-11.26.2-4.74.79-9.29,2.57-9.29.4,0,.59.4.59.79v.2c-.2,2.76-.4,5.33-.59,8.1-.2,6.72,4.54,11.06,11.46,10.47,2.17-.2,4.35-.2,6.52-.2.99,0,2.77.99,2.77,1.97,0,.4-.2.6-.59.6-2.77.39-5.73.59-8.5.79-6.91.6-11.06,5.34-10.47,12.05.2,1.78.2,3.36.2,5.14,0,.99-.98,2.76-1.97,2.76-.4,0-.59-.2-.59-.59-.39-2.37-.59-4.94-.79-7.31h-.03Z"/>
  <path class="st6" d="M798.66,190.67h.2c7.9,0,13.23-5.33,13.23-13.24v-77.63h-12.05v-3.95h12.05v-6.32c0-21.34,6.72-35.16,31.21-35.16,17.78,0,44.05,12.84,44.05,28.25,0,7.51-7.31,11.46-14.42,11.46-5.92,0-11.65-2.57-13.43-8.1,15.8-5.93,9.28-25.68-6.12-25.68-8.1,0-17.58,5.92-17.58,21.14v14.42h26.07v3.95h-26.07v77.63c.2,7.9,5.53,13.24,13.43,13.24h.2v3.95h-50.77v-3.95h0Z"/>
  <path class="st5" d="M93.29,342.93h.2c7.9,0,13.23-5.33,13.23-13.24v-84.35c0-7.9-5.33-13.24-13.23-13.24h-.2v-3.95h50.57v3.95h-.2c-7.9,0-13.24,5.33-13.24,13.24v36.55h48v-36.55c0-7.9-5.33-13.24-13.23-13.24h-.2v-3.95h50.57v3.95h-.2c-7.9,0-13.23,5.33-13.23,13.24v84.35c0,7.9,5.33,13.24,13.23,13.24h.2v3.95h-50.57v-3.95h.2c7.9,0,13.23-5.33,13.23-13.24v-43.85h-48v43.85c0,7.9,5.33,13.24,13.24,13.24h.2v3.95h-50.57v-3.95h0Z"/>
  <path class="st2" d="M254.87,311.72c0,10.87,2.77,24.1,16.99,24.1,10.08,0,18.37-4.94,26.86-13.63v-49.39c0-7.51-4.94-12.44-12.45-12.44h-.99v-3.95c6.72,0,24.1,0,35.16-13.23h1.98v79.02c0,7.51,4.93,12.45,12.44,12.45h.99v3.95c-6.71,0-24.1,0-35.16,13.24h-1.97v-23.71c-10.08,11.26-23.31,20.74-38.92,20.74-21.34,0-28.65-18.57-28.65-36.94v-39.11c0-7.51-4.94-12.44-12.44-12.44h-.99v-3.95c6.71,0,24.1,0,35.16-13.23h1.97v68.55h0l.02-.03Z"/>
  <path class="st11" d="M349.68,272.8c0-7.51-4.93-12.44-12.44-12.44h-.99v-3.95c6.71,0,24.1,0,35.16-13.23h1.97v23.51c8.69-11.06,20.35-20.55,33.78-20.55,15.01,0,20.74,8.3,22.52,21.14,8.89-11.46,20.54-21.14,34.17-21.14,18.57,0,23.11,12.64,23.11,31.02v52.55c0,7.71,5.53,13.24,13.43,13.24h.2v3.95h-50.77v-3.95h.2c7.9,0,13.23-5.33,13.23-13.24v-56.3c0-8.89-5.14-12.64-11.46-12.64-7.31,0-16.59,4.94-21.73,13.04v.79l.2,1.78v53.34c0,7.71,5.53,13.24,13.43,13.24h.2v3.95h-50.77v-3.95h.2c7.9,0,13.23-5.33,13.23-13.24v-56.3c0-8.89-5.14-12.64-11.46-12.64-7.51,0-16.59,4.94-21.73,13.04v55.9c0,7.9,5.33,13.24,13.24,13.24h.2v3.95h-50.57v-3.95h.2c7.9,0,13.23-5.33,13.23-13.24v-56.89h0l.02-.03Z"/>
  <path class="st10" d="M566.18,327.13c-9.48,6.72-19.95,21.93-37.14,21.93-15.01,0-26.07-10.47-26.07-25.48,0-32.2,45.04-27.26,45.04-35.16,0-1.98-2.17-2.17-3.75-2.17-3.56,0-8.89.79-13.83.79-8.1,0-15.8-1.98-15.8-12.64,0-15.61,26.28-28.25,44.05-28.25s31.01,7.7,31.21,26.67v49.39c0,7.51,4.94,12.45,12.45,12.45h.99v3.95c-6.72,0-24.1,0-35.16,13.24h-1.97v-24.7h0l-.02-.02ZM566.18,273.2c0-14.82-8.89-21.14-17.58-21.14-7.7,0-15.21,5.14-15.21,13.83,0,18.37,18.57,14.82,18.57,22.12,0,2.97-1.78,5.14-4.74,6.72-7.51,3.75-20.74,5.53-20.74,19.95,0,9.68,5.73,16.2,16,16.2,11.26,0,18.17-4.15,23.71-8.3v-49.39h-.01Z"/>
  <path class="st9" d="M617.53,272.8c0-7.51-4.93-12.44-12.44-12.44h-.99v-3.95c6.72,0,24.1,0,35.16-13.23h1.97v23.71c10.27-11.26,23.71-20.74,39.11-20.74,21.34,0,28.65,15.21,28.65,32.4,0,22.12-3.95,37.54-3.95,55.71,0,43.46,15.41,50.97,28.05,50.97,18.57,0,20.35-22.72,13.04-32.59,30.03-5.73,31.21,36.54-14.03,36.54-22.72,0-50.77-10.27-50.77-55.31,0-14.23,3.95-34.77,3.95-50.57,0-10.87-2.77-23.9-16.99-23.9-10.08,0-18.57,4.74-27.07,13.43v56.89c0,7.9,5.33,13.24,13.24,13.24h.2v3.95h-50.57v-3.95h.2c7.9,0,13.23-5.33,13.23-13.24v-56.89h0v-.03Z"/>
</svg>