<?xml version="1.0" encoding="UTF-8"?>
<svg id="nav" xmlns="http://www.w3.org/2000/svg" xmlns:xlink="http://www.w3.org/1999/xlink" viewBox="0 0 533.16 186.67">
  <defs>
    <style>
      .cls-1 {
        fill: url(#linear-gradient);
      }

      .cls-2 {
        fill: #8feaff;
        font-family: cinemasunday-Regular, 'cinema sunday';
        font-size: 85.09px;
      }

      .cls-3 {
        letter-spacing: -.08em;
      }
    </style>
    <linearGradient id="linear-gradient" x1="264.16" y1="6.94" x2="268.73" y2="175.8" gradientUnits="userSpaceOnUse">
      <stop offset=".67" stop-color="#fff820"/>
      <stop offset="1" stop-color="#7f6a00"/>
    </linearGradient>
  </defs>
  <text class="cls-2" transform="translate(44.67 80.44)"><tspan x="0" y="0">Little Prince</tspan><tspan x="0" y="74.85">VIS</tspan><tspan class="cls-3" x="119.21" y="74.85">U</tspan><tspan x="163.89" y="74.85">AL LED</tspan></text>
  <g>
    <path class="cls-1" d="M85.52,69.8l1.53.26-2.04,12.51h-.43c-1.02-2.13-8.08-2.13-14.04-2.13h-25.44v-1.7h.08c3.4,0,5.7-2.3,5.7-5.7v-36.34c0-3.4-2.3-5.7-5.7-5.7h-.08v-1.7h21.79v1.7h-.08c-3.4,0-5.7,2.3-5.7,5.7v42.04c7.83,0,20.42.51,24.42-8.94Z"/>
    <path class="cls-1" d="M93.08,48.53c0-3.23-2.13-5.36-5.36-5.36h-.42v-1.7c2.89,0,10.38,0,15.15-5.7h.85v37.27c0,3.4,2.3,5.7,5.7,5.7h.08v1.7h-21.79v-1.7h.08c3.4,0,5.7-2.3,5.7-5.7v-24.51ZM98.28,22.23c3.32,0,5.53,2.21,5.53,5.53s-2.21,5.53-5.53,5.53-5.53-2.21-5.53-5.53,2.21-5.53,5.53-5.53Z"/>
    <path class="cls-1" d="M109.25,37.89h1.19c7.83,0,11.74-5.11,12.51-13.45h1.7v13.45h11.23v1.7h-11.23v29.1c0,5.87.94,9.7,5.7,9.7,3.15,0,5.45-1.28,8.34-4.85l1.11,1.02c-2.21,3.74-5.96,6.81-11.91,6.81-10.55,0-13.45-5.96-13.45-15.15v-26.64h-5.19v-1.7Z"/>
    <path class="cls-1" d="M136.91,37.89h1.19c7.83,0,11.74-5.11,12.51-13.45h1.7v13.45h11.23v1.7h-11.23v29.1c0,5.87.94,9.7,5.7,9.7,3.15,0,5.45-1.28,8.34-4.85l1.11,1.02c-2.21,3.74-5.96,6.81-11.91,6.81-10.55,0-13.45-5.96-13.45-15.15v-26.64h-5.19v-1.7Z"/>
    <path class="cls-1" d="M171.03,32.19c0-3.23-2.13-5.36-5.36-5.36h-.42v-1.7c2.89,0,10.38,0,15.15-5.7h.85v53.61c0,3.4,2.3,5.7,5.7,5.7h.08v1.7h-21.79v-1.7h.08c3.4,0,5.7-2.3,5.7-5.7v-40.85Z"/>
    <path class="cls-1" d="M227.27,67.76c-3.15,8.77-11.57,13.53-18.89,13.53-26.04,0-27.49-44.25.6-44.25,9.36,0,18.04,3.83,18.13,12.34h-28.76c-1.96,10.3,3.49,24.34,17.02,24.34,4.34,0,8.51-2.13,10.98-6.38l.94.43ZM217.4,47.68c-.42-5.19-2.38-8.94-8.34-8.94-5.45,0-8.94,3.83-10.38,8.94h18.72Z"/>
    <path class="cls-1" d="M269.73,78.74h.08v1.7h-21.79v-1.7h.08c3.4,0,5.7-2.3,5.7-5.7v-36.34c0-3.4-2.3-5.7-5.7-5.7h-.08v-1.7h26.38c25.96,0,25.96,33.19,0,33.19h-10.38v10.55c0,3.4,2.3,5.7,5.7,5.7ZM272.37,60.69c14.47,0,14.47-29.53,0-29.61l-8.17-.08h-.17v29.7h8.34Z"/>
    <path class="cls-1" d="M300.96,48.53c0-3.23-2.13-5.36-5.36-5.36h-.42v-1.7c2.89,0,10.38,0,15.15-5.7h.85v10.13c3.74-4.77,8.77-8.85,14.55-8.85,10.55,0,10.64,12.08,1.19,14.47.94-4.59-1.02-8.68-6.13-8.68-3.32,0-7.15,1.96-9.62,6.13v24.08c0,3.4,2.3,5.7,5.7,5.7h.08v1.7h-21.79v-1.7h.08c3.4,0,5.7-2.3,5.7-5.7v-24.51Z"/>
    <path class="cls-1" d="M340.1,48.53c0-3.23-2.13-5.36-5.36-5.36h-.42v-1.7c2.89,0,10.38,0,15.15-5.7h.85v37.27c0,3.4,2.3,5.7,5.7,5.7h.08v1.7h-21.79v-1.7h.08c3.4,0,5.7-2.3,5.7-5.7v-24.51ZM345.29,22.23c3.32,0,5.53,2.21,5.53,5.53s-2.21,5.53-5.53,5.53-5.53-2.21-5.53-5.53,2.21-5.53,5.53-5.53Z"/>
    <path class="cls-1" d="M362.73,48.53c0-3.23-2.13-5.36-5.36-5.36h-.42v-1.7c2.89,0,10.38,0,15.15-5.7h.85v10.21c4.34-4.85,10.13-8.94,16.85-8.94,9.19,0,12.34,8,12.34,15.91v20.08c.09,3.4,2.3,5.7,5.7,5.7h.08v1.7h-21.79v-1.7h.08c3.4,0,5.7-2.3,5.7-5.7v-20c0-4.68-1.19-10.38-7.32-10.38-4.34,0-8,2.13-11.66,5.87v24.51c0,3.4,2.3,5.7,5.7,5.7h.08v1.7h-21.79v-1.7h.08c3.4,0,5.7-2.3,5.7-5.7v-24.51Z"/>
    <path class="cls-1" d="M448.25,48.02c0,4.17-3.57,6.72-7.49,6.72-2.3,0-4.51-1.11-5.19-3.23,3.15-.6,4.68-2.98,4.68-5.53,0-3.49-2.98-7.23-8.76-7.23-7.92,0-13.02,6.55-12.94,14.89,0,10.21,6.21,20.08,17.45,20.08,4.34,0,8.42-2.13,10.98-6.38l.94.43c-3.15,8.77-11.57,13.53-18.89,13.53-13.19,0-20-11.23-20-22.38,0-12.25,9.02-21.87,21.79-21.87,6.38,0,17.45,2.64,17.45,10.98Z"/>
    <path class="cls-1" d="M489.35,67.76c-3.15,8.77-11.57,13.53-18.89,13.53-26.04,0-27.49-44.25.6-44.25,9.36,0,18.04,3.83,18.13,12.34h-28.76c-1.96,10.3,3.49,24.34,17.02,24.34,4.34,0,8.51-2.13,10.98-6.38l.94.43ZM479.48,47.68c-.42-5.19-2.38-8.94-8.34-8.94-5.45,0-8.94,3.83-10.38,8.94h18.72Z"/>
    <path class="cls-1" d="M42.97,104.14h21.79v1.7h-.34c-3.06,0-4.17,1.87-2.89,4.6l15.4,32.59,12.85-31.91c1.36-3.32,0-5.28-3.92-5.28h-.17v-1.7h13.28v1.7h-.26c-3.06,0-5.45.85-6.98,4.77l-17.87,44.68h-2.47l-21.1-44.85c-1.28-2.72-4.25-4.6-7.32-4.6v-1.7Z"/>
    <path class="cls-1" d="M103.47,111.55c0-3.4-2.3-5.7-5.7-5.7h-.08v-1.7h21.79v1.7h-.08c-3.4,0-5.7,2.3-5.7,5.7v36.34c0,3.4,2.3,5.7,5.7,5.7h.08v1.7h-21.79v-1.7h.08c3.4,0,5.7-2.3,5.7-5.7v-36.34Z"/>
    <path class="cls-1" d="M122.27,141.07h1.7c1.62,7.57,10.55,13.36,18.64,13.36,6.72,0,11.74-1.96,11.74-7.74,0-15.57-33.19-9.96-33.19-29.44,0-9.7,11.06-13.96,19.23-13.96,5.19,0,8,1.28,10.98,1.28,1.62,0,3.32-.34,5.53-1.7l.68-.42h.51l.94,15.91h-1.7c-1.62-7.66-9.11-13.36-17.19-13.36-4.76,0-10.13,2.21-10.21,7.74-.17,15.06,32.59,9.96,32.59,28.68,0,10.38-10.13,14.72-19.23,14.72-6.72,0-10.38-1.96-13.96-1.96-1.62,0-3.23.43-5.11,1.53l-.68.42h-.51l-.77-15.06Z"/>
    <path class="cls-1" d="M180.13,138.95c0,9.7,6.89,14.21,13.7,14.21,7.32,0,13.79-4.68,13.79-12.51v-29.1c0-3.4-2.3-5.7-5.7-5.7h-.08v-1.7h13.28v1.7h-.08c-3.4,0-5.7,2.3-5.7,5.7v28.25c0,10.81-9.53,16.34-19.23,16.34s-20.17-6.13-20.17-18.89v-25.7c0-3.4-2.3-5.7-5.7-5.7h-.09v-1.7h21.79v1.7h-.08c-3.4,0-5.7,2.3-5.7,5.7v27.4Z"/>
    <path class="cls-1" d="M233.23,105.76l3.15-1.62,20.08,44.76c1.28,2.81,4.17,4.68,7.23,4.68v1.7h-21.44v-1.7c3.06,0,4.25-1.87,2.98-4.68l-5.02-11.15h-18.55l-4.6,10.89c-1.28,2.98,0,4.94,3.23,4.94h.68v1.7h-13.28v-1.7c3.23,0,6.3-1.96,7.74-5.45l17.79-42.38ZM239.44,136.05l-8.76-19.74-8.34,19.74h17.1Z"/>
    <path class="cls-1" d="M303.69,144.65l1.53.26-2.04,12.51h-.43c-1.02-2.13-8.08-2.13-14.04-2.13h-25.44v-1.7h.08c3.4,0,5.7-2.3,5.7-5.7v-36.34c0-3.4-2.3-5.7-5.7-5.7h-.08v-1.7h21.79v1.7h-.08c-3.4,0-5.7,2.3-5.7,5.7v42.04c7.83,0,20.42.51,24.42-8.94Z"/>
    <path class="cls-1" d="M365.38,144.65l1.53.26-2.04,12.51h-.43c-1.02-2.13-8.08-2.13-14.04-2.13h-25.44v-1.7h.08c3.4,0,5.7-2.3,5.7-5.7v-36.34c0-3.4-2.3-5.7-5.7-5.7h-.08v-1.7h21.79v1.7h-.08c-3.4,0-5.7,2.3-5.7,5.7v42.04c7.83,0,20.42.51,24.42-8.94Z"/>
    <path class="cls-1" d="M407.58,144.65l1.53.26-2.04,12.51h-.43c-1.02-2.13-8.08-2.13-14.04-2.13h-25.44v-1.7h.08c3.4,0,5.7-2.3,5.7-5.7v-36.34c0-3.4-2.3-5.7-5.7-5.7h-.08v-1.7h40.25l1.7,10.38-1.45.34c-4-9.45-16.68-9.02-24.51-9.02v21.53h4.68c4.59,0,8-.68,9.7-5.11h1.7v11.91h-1.7c-1.7-4.42-5.11-5.11-9.7-5.11h-4.68v24.51c7.83,0,20.42.51,24.42-8.94Z"/>
    <path class="cls-1" d="M409.36,153.58h.08c3.4,0,5.7-2.3,5.7-5.7v-36.34c0-3.4-2.3-5.7-5.7-5.7h-.08v-1.7h26.38c16.93,0,23.57,12.68,23.57,25.45s-6.64,25.7-23.57,25.7h-26.38v-1.7ZM433.7,153.58c10.98,0,14.47-11.91,14.47-23.83s-3.49-23.91-14.47-23.91h-8.34v47.74h8.34Z"/>
  </g>
</svg>