<?xml version="1.0" encoding="UTF-8"?>
<svg xmlns="http://www.w3.org/2000/svg" viewBox="0 0 1761.52 854.89">
  <defs>
    <style>
      .cls-1 {
        isolation: isolate;
      }

      .cls-2 {
        fill: #020202;
      }

      .cls-3 {
        mix-blend-mode: overlay;
        opacity: .38;
      }
    </style>
  </defs>
  <g class="cls-1">
    <g id="Layer_1" data-name="Layer 1">
      <g class="cls-3">
        <path class="cls-2" d="M317.94,604.96h5.32v19.48h-29.25c-40.88,0-38.88-76.95-38.88-165.58,0-146.1-40.55-109.09-40.55-165.58,0-36.04,34.56-14.61,34.56-115.91,0-78.89-23.93-118.83-47.86-118.83h-23.93v481.16c0,38.96,8.97,65.26,22.27,65.26h.33v19.48h-85.08v-19.48h.33c13.29,0,22.27-26.3,22.27-65.26V123.8c0-38.96-8.97-65.26-22.27-65.26h-.33v-19.48h99.7c27.92,0,76.11,21.43,76.11,138.31,0,107.14-47.86,107.14-63.14,107.14-2.66,0-6.32.97-6.32,10.71,0,36.04,73.78,8.77,73.78,169.48,0,68.18-3.99,140.26,22.93,140.26Z"/>
        <path class="cls-2" d="M366.79,828.01c-23.93,0-35.56-46.75-35.56-93.5,0-50.65,13.96-84.74,30.24-84.74,14.96,0,17.61,31.17,28.25,31.17,11.63,0,8.97-74.02-5.32-165.58l-44.87-289.28c-9.64-62.34-16.95-69.15-26.26-69.15v-19.48h75.11v19.48c-9.31,0-12.96,16.56-9.31,41.88l47.19,306.81,34.23-288.31c3.99-36.04-1.66-60.39-14.96-60.39h-.33v-19.48h51.85v19.48h-.33c-13.29,0-24.93,24.35-29.25,60.39l-54.5,459.73c-10.3,86.69-19.61,150.97-46.2,150.97ZM400.03,722.82c4.65-37.01,7.31-69.15,1.66-94.48,4.99,48.7-1,72.08-13.63,72.08-5.32,0-14.29-6.82-21.27-6.82-23.6,0-21.94,114.93,4.98,114.93,12.63,0,22.93-40.91,28.25-85.71Z"/>
        <path class="cls-2" d="M689.16,275.75c0-41.88-8.31-77.92-23.6-77.92h-1.66v-19.48c11.3,0,40.55,0,59.16-65.26h3.32v117.85c16.95-55.52,39.55-103.24,65.8-103.24,35.89,0,48.19,91.56,48.19,182.14v229.87c.33,38.96,9.31,65.26,22.6,65.26h.33v19.48h-85.08v-19.48h.33c13.29,0,22.27-26.3,22.27-65.26v-228.89c0-53.57-6.98-118.83-30.91-118.83-16.95,0-28.91,23.38-43.87,69.15-26.59,80.84-54.84,175.32-86.08,250.32,1.33,32.14,9.31,52.6,20.94,52.6h1.66v19.48c-11.3,0-40.55,0-59.16,65.26h-3.32v-61.36c-19.61,29.22-40.21,47.73-62.48,47.73-25.26,0-43.87-51.62-43.87-125.65,0-158.76,75.77-134.41,75.77-173.37,0-7.79-2.99-10.71-7.31-10.71-5.98,0-14.62,3.9-22.93,3.9-13.29,0-25.92-9.74-25.92-62.34,0-76.95,44.2-139.28,74.11-139.28s52.18,37.99,52.51,131.49v195.78c-3.99,8.77-9.31,21.43-13.63,30.19-3.99,7.79-8.64,12.66-12.63,12.66-7.64,0-13.63-14.61-13.63-47.73v-188.96c0-73.05-14.96-104.22-29.58-104.22-12.96,0-25.59,26.3-25.59,68.18,0,91.56,31.24,73.05,31.24,109.09,0,51.62-42.87,32.14-42.87,131.49,0,81.82,18.94,118.83,40.21,118.83,30.58,0,61.82-81.82,92.72-168.5,13.63-38.96,22.93-94.48,22.93-140.26ZM664.24,604.96h.33c13.29,0,21.93-26.3,21.93-65.26v-127.59c1.33-3.9,2.33-6.82,3.66-10.71l7.31-24.35c1.33-3.9,2.66-7.79,3.66-10.71,4.32-12.66,8.97-18.51,13.63-18.51,6.31,0,11.63,12.66,11.63,37.99v153.89c.33,38.96,9.31,65.26,22.6,65.26h.33v19.48h-85.08v-19.48Z"/>
        <path class="cls-2" d="M1050.42,539.7c0,38.96,8.97,65.26,22.27,65.26h.33v19.48h-85.08v-19.48h.33c13.29,0,22.27-26.3,22.27-65.26V60.49c-31.9,5.84-52.18,65.26-62.81,139.28l-5.65-2.92,6.65-157.79h163.51l6.65,157.79-5.65,2.92c-10.63-74.02-30.91-133.44-62.81-139.28v479.21Z"/>
        <path class="cls-2" d="M1145.14,259.19c0-37.01-8.31-61.36-20.94-61.36h-1.66v-19.48c11.3,0,40.55,0,59.16-65.26h3.32v115.91c14.62-54.54,34.23-101.3,56.83-101.3,41.21,0,41.54,138.31,4.65,165.58,3.66-52.6-3.99-99.35-23.93-99.35-12.96,0-27.92,22.4-37.55,70.13v275.64c0,38.96,8.97,65.26,22.27,65.26h.33v19.48h-85.08v-19.48h.33c13.29,0,22.27-26.3,22.27-65.26v-280.51Z"/>
        <path class="cls-2" d="M1472.5,275.75c0-41.88-8.31-77.92-23.6-77.92h-1.66v-19.48c11.3,0,40.55,0,59.16-65.26h3.32v117.85c16.95-55.52,39.55-103.24,65.8-103.24,35.89,0,48.19,91.56,48.19,182.14v229.87c.33,38.96,9.31,65.26,22.6,65.26h.33v19.48h-85.08v-19.48h.33c13.29,0,22.27-26.3,22.27-65.26v-228.89c0-53.57-6.98-118.83-30.91-118.83-16.95,0-28.91,23.38-43.87,69.15-26.59,80.84-54.84,175.32-86.08,250.32,1.33,32.14,9.31,52.6,20.94,52.6h1.66v19.48c-11.3,0-40.55,0-59.16,65.26h-3.32v-61.36c-19.61,29.22-40.21,47.73-62.48,47.73-25.26,0-43.87-51.62-43.87-125.65,0-158.76,75.77-134.41,75.77-173.37,0-7.79-2.99-10.71-7.31-10.71-5.98,0-14.62,3.9-22.93,3.9-13.29,0-25.92-9.74-25.92-62.34,0-76.95,44.2-139.28,74.11-139.28s52.18,37.99,52.51,131.49v195.78c-3.99,8.77-9.31,21.43-13.63,30.19-3.99,7.79-8.64,12.66-12.63,12.66-7.64,0-13.63-14.61-13.63-47.73v-188.96c0-73.05-14.96-104.22-29.58-104.22-12.96,0-25.59,26.3-25.59,68.18,0,91.56,31.24,73.05,31.24,109.09,0,51.62-42.87,32.14-42.87,131.49,0,81.82,18.94,118.83,40.21,118.83,30.58,0,61.82-81.82,92.72-168.5,13.63-38.96,22.93-94.48,22.93-140.26ZM1447.57,604.96h.33c13.29,0,21.93-26.3,21.93-65.26v-127.59c1.33-3.9,2.33-6.82,3.66-10.71l7.31-24.35c1.33-3.9,2.66-7.79,3.66-10.71,4.32-12.66,8.97-18.51,13.63-18.51,6.31,0,11.63,12.66,11.63,37.99v153.89c.33,38.96,9.31,65.26,22.6,65.26h.33v19.48h-85.08v-19.48Z"/>
      </g>
    </g>
  </g>
</svg>