<?xml version="1.0" encoding="UTF-8"?>
<svg id="nav" xmlns="http://www.w3.org/2000/svg" xmlns:xlink="http://www.w3.org/1999/xlink" viewBox="0 0 325.55 91.13">
  <defs>
    <style>
      .cls-1 {
        filter: url(#drop-shadow-9);
      }

      .cls-2 {
        fill: #fefefe;
      }
    </style>
    <filter id="drop-shadow-9" x="38.61" y="13.76" width="248.33" height="64.66" filterUnits="userSpaceOnUse">
      <feOffset dx="21.2" dy="21.2"/>
      <feGaussianBlur result="blur" stdDeviation="15.14"/>
      <feFlood flood-color="#000" flood-opacity=".73"/>
      <feComposite in2="blur" operator="in"/>
      <feComposite in="SourceGraphic"/>
    </filter>
  </defs>
  <g class="cls-1">
    <path class="cls-2" d="M39.55,50.99h1.44c1.37,6.41,8.93,11.31,15.77,11.31,5.69,0,9.94-1.66,9.94-6.55,0-13.18-28.08-8.42-28.08-24.91,0-8.21,9.36-11.81,16.27-11.81,4.39,0,6.77,1.08,9.29,1.08,1.37,0,2.81-.29,4.68-1.44l.58-.36h.43l.79,13.46h-1.44c-1.37-6.48-7.7-11.3-14.54-11.3-4.03,0-8.57,1.87-8.64,6.55-.14,12.75,27.58,8.42,27.58,24.27,0,8.79-8.57,12.46-16.27,12.46-5.69,0-8.78-1.66-11.81-1.66-1.37,0-2.74.36-4.32,1.3l-.58.36h-.43l-.65-12.75Z"/>
    <path class="cls-2" d="M80.01,36.01c0-2.74-1.8-4.54-4.54-4.54h-.36v-1.44c2.45,0,8.79,0,12.82-4.83h.72v31.54c0,2.88,1.94,4.82,4.83,4.82h.07v1.44h-18.43v-1.44h.07c2.88,0,4.82-1.94,4.82-4.82v-20.74ZM84.4,13.76c2.81,0,4.68,1.87,4.68,4.68s-1.87,4.68-4.68,4.68-4.68-1.87-4.68-4.68,1.87-4.68,4.68-4.68Z"/>
    <path class="cls-2" d="M99.16,36.01c0-2.74-1.8-4.54-4.54-4.54h-.36v-1.44c2.45,0,8.79,0,12.82-4.83h.72v8.64c3.67-4.1,8.57-7.56,14.26-7.56,20.52,0,18.72,37.44-5.26,37.44-3.17,0-6.19-.65-9-2.45v9.87c0,2.88,1.94,4.82,4.82,4.82h.07v1.44h-18.43v-1.44h.07c2.88,0,4.82-1.94,4.82-4.82v-35.14ZM107.8,59.05c1.3,2.02,4.61,2.95,7.13,2.95,15.84,0,16.78-30.96,2.74-30.96-3.67,0-6.77,1.8-9.87,4.97v23.04Z"/>
    <path class="cls-2" d="M138.98,50.99h1.44c1.37,6.41,8.93,11.31,15.77,11.31,5.69,0,9.94-1.66,9.94-6.55,0-13.18-28.08-8.42-28.08-24.91,0-8.21,9.36-11.81,16.27-11.81,4.39,0,6.77,1.08,9.29,1.08,1.37,0,2.81-.29,4.68-1.44l.58-.36h.43l.79,13.46h-1.44c-1.37-6.48-7.71-11.3-14.54-11.3-4.03,0-8.57,1.87-8.64,6.55-.14,12.75,27.58,8.42,27.58,24.27,0,8.79-8.57,12.46-16.27,12.46-5.69,0-8.79-1.66-11.81-1.66-1.37,0-2.74.36-4.32,1.3l-.58.36h-.43l-.65-12.75Z"/>
    <path class="cls-2" d="M184.34,78.06c-5.18,0-7.71-3.46-7.71-6.91,0-3.74,3.03-6.26,6.55-6.26,3.24,0,3.82,2.3,6.12,2.3,2.52,0,1.94-5.47-1.15-12.24l-9.72-21.39c-2.09-4.61-3.67-5.11-5.69-5.11v-1.44h16.27v1.44c-2.02,0-2.81,1.22-2.02,3.1l10.22,22.68,7.42-21.31c.86-2.66-.36-4.46-3.24-4.46h-.07v-1.44h11.23v1.44h-.07c-2.88,0-5.4,1.8-6.34,4.46l-11.81,33.99c-2.23,6.41-4.25,11.16-10.01,11.16ZM191.54,70.28c1.01-2.74,1.58-5.11.36-6.98,1.08,3.6-.22,5.33-2.95,5.33-1.15,0-3.1-.5-4.61-.5-5.11,0-4.75,8.5,1.08,8.5,2.74,0,4.97-3.02,6.12-6.34Z"/>
    <path class="cls-2" d="M216.38,36.01c0-2.74-1.8-4.54-4.54-4.54h-.36v-1.44c2.45,0,8.79,0,12.82-4.83h.72v8.64c3.74-4.1,8.64-7.56,14.26-7.56,7.78,0,10.44,5.54,10.44,11.81,0,8.06-1.44,13.68-1.44,20.31,0,15.84,5.62,18.58,10.22,18.58,6.77,0,7.42-8.28,4.75-11.88,10.95-2.09,11.38,13.32-5.11,13.32-8.28,0-18.51-3.74-18.51-20.16,0-5.18,1.44-12.67,1.44-18.43,0-3.96-1.01-8.71-6.19-8.71-3.67,0-6.77,1.73-9.87,4.9v20.74c0,2.88,1.94,4.82,4.82,4.82h.07v1.44h-18.43v-1.44h.07c2.88,0,4.82-1.94,4.82-4.82v-20.74Z"/>
    <path class="cls-2" d="M286.94,35.58c0,3.53-3.02,5.69-6.34,5.69-1.95,0-3.82-.94-4.39-2.74,2.66-.5,3.96-2.52,3.96-4.68,0-2.95-2.52-6.12-7.42-6.12-6.7,0-11.02,5.54-10.94,12.6,0,8.64,5.26,16.99,14.76,16.99,3.67,0,7.13-1.8,9.29-5.4l.79.36c-2.66,7.42-9.79,11.45-15.99,11.45-11.16,0-16.92-9.5-16.92-18.94,0-10.37,7.63-18.51,18.43-18.51,5.4,0,14.76,2.23,14.76,9.29Z"/>
  </g>
</svg>